<svg width="24" height="24" viewBox="0 0 24 24" fill="none" xmlns="http://www.w3.org/2000/svg">
<g id="fluent:call-24-regular">
<path id="Vector" d="M7.05699 2.41781L8.22399 2.06681C8.86328 1.87403 9.55087 1.92044 10.1585 2.19737C10.766 2.4743 11.2521 2.96283 11.526 3.57181L12.428 5.57781C12.6635 6.10161 12.729 6.68599 12.6155 7.24895C12.502 7.81191 12.2151 8.3252 11.795 8.71681L10.3 10.1098C10.2563 10.1505 10.2286 10.2055 10.222 10.2648C10.178 10.6618 10.447 11.4348 11.068 12.5098C11.518 13.2908 11.927 13.8398 12.274 14.1468C12.517 14.3618 12.65 14.4078 12.707 14.3918L14.717 13.7768C15.2659 13.6089 15.8536 13.617 16.3977 13.7999C16.9418 13.9828 17.415 14.3314 17.751 14.7968L19.031 16.5728C19.4207 17.1128 19.6012 17.7758 19.539 18.4388C19.4769 19.1018 19.1762 19.7197 18.693 20.1778L17.806 21.0178C17.3358 21.4631 16.7582 21.7791 16.1296 21.9348C15.501 22.0906 14.8428 22.081 14.219 21.9068C11.465 21.1378 8.99599 18.8138 6.78399 14.9828C4.56999 11.1468 3.79199 7.84281 4.50999 5.06981C4.67116 4.44615 4.99027 3.87451 5.43656 3.41001C5.88285 2.94551 6.44027 2.60379 7.05699 2.41781ZM7.48999 3.85481C7.11988 3.96612 6.78468 4.17088 6.51669 4.44938C6.24871 4.72787 6.05698 5.07069 5.95999 5.44481C5.35799 7.77681 6.04699 10.7058 8.08299 14.2328C10.117 17.7548 12.306 19.8158 14.623 20.4628C14.9973 20.5672 15.3922 20.5729 15.7693 20.4793C16.1465 20.3857 16.4929 20.1961 16.775 19.9288L17.661 19.0888C17.8808 18.8806 18.0176 18.5997 18.0459 18.2982C18.0742 17.9968 17.9922 17.6953 17.815 17.4498L16.535 15.6748C16.3822 15.463 16.167 15.3044 15.9195 15.2212C15.672 15.1379 15.4047 15.1343 15.155 15.2108L13.14 15.8278C11.97 16.1758 10.909 15.2348 9.76899 13.2598C8.99999 11.9298 8.64199 10.8998 8.73199 10.0988C8.77799 9.68281 8.97199 9.29881 9.27699 9.01281L10.772 7.61981C10.9628 7.44171 11.0931 7.20832 11.1446 6.95239C11.1961 6.69647 11.1661 6.43085 11.059 6.19281L10.158 4.18681C10.0335 3.91 9.81252 3.68794 9.53633 3.56208C9.26013 3.43622 8.94758 3.41515 8.65699 3.50281L7.48999 3.85481Z" fill="#8C8B8B"/>
</g>
</svg>
