<svg width="44" height="44" viewBox="0 0 44 44" fill="none" xmlns="http://www.w3.org/2000/svg">
<rect width="44" height="44" rx="8" fill="white" fill-opacity="0.9"/>
<path d="M18.91 30.67C18.72 30.67 18.53 30.6 18.38 30.45C18.09 30.16 18.09 29.68 18.38 29.39L24.9 22.87C25.38 22.39 25.38 21.61 24.9 21.13L18.38 14.61C18.09 14.32 18.09 13.84 18.38 13.55C18.67 13.26 19.15 13.26 19.44 13.55L25.96 20.07C26.47 20.58 26.76 21.27 26.76 22C26.76 22.73 26.48 23.42 25.96 23.93L19.44 30.45C19.29 30.59 19.1 30.67 18.91 30.67Z" fill="#8C8B8B"/>
</svg>
