<svg width="24" height="24" viewBox="0 0 24 24" fill="none" xmlns="http://www.w3.org/2000/svg">
<g id="la:id-card">
<path id="Vector" d="M3.75 4.5C2.51625 4.5 1.5 5.51625 1.5 6.75V17.25C1.5 18.4838 2.51625 19.5 3.75 19.5H20.25C21.4837 19.5 22.5 18.4838 22.5 17.25V6.75C22.5 5.51625 21.4837 4.5 20.25 4.5H3.75ZM3.75 6H20.25C20.6745 6 21 6.3255 21 6.75V17.25C21 17.6745 20.6745 18 20.25 18H3.75C3.3255 18 3 17.6745 3 17.25V6.75C3 6.3255 3.3255 6 3.75 6ZM8.25 7.5C6.6 7.5 5.25 8.85 5.25 10.5C5.25 11.3348 5.60775 12.0877 6.16425 12.633C5.65374 12.9775 5.23522 13.4416 4.94515 13.9849C4.65508 14.5282 4.50226 15.1341 4.5 15.75H6C6 14.499 6.999 13.5 8.25 13.5C9.501 13.5 10.5 14.499 10.5 15.75H12C11.9977 15.1341 11.8449 14.5282 11.5549 13.9849C11.2648 13.4416 10.8463 12.9775 10.3358 12.633C10.8923 12.0877 11.25 11.3355 11.25 10.5C11.25 8.85 9.9 7.5 8.25 7.5ZM13.5 8.25V9.75H19.5V8.25H13.5ZM8.25 9C9.08775 9 9.75 9.66225 9.75 10.5C9.75 11.3377 9.08775 12 8.25 12C7.41225 12 6.75 11.3377 6.75 10.5C6.75 9.66225 7.41225 9 8.25 9ZM13.5 11.25V12.75H19.5V11.25H13.5ZM13.5 14.25V15.75H17.25V14.25H13.5Z" fill="#8C8B8B"/>
</g>
</svg>
