<svg width="24" height="24" viewBox="0 0 24 24" fill="none" xmlns="http://www.w3.org/2000/svg">
<g id="material-symbols-light:logout">
<path id="Vector" d="M5.615 20C5.155 20 4.771 19.846 4.463 19.538C4.15433 19.2293 4 18.845 4 18.385V5.615C4 5.155 4.15433 4.771 4.463 4.463C4.771 4.15433 5.155 4 5.615 4H12.019V5H5.615C5.46167 5 5.32067 5.064 5.192 5.192C5.064 5.32067 5 5.46167 5 5.615V18.385C5 18.5383 5.064 18.6793 5.192 18.808C5.32067 18.936 5.46167 19 5.615 19H12.019V20H5.615ZM16.462 15.538L15.76 14.819L18.079 12.5H9.192V11.5H18.079L15.759 9.18L16.462 8.462L20 12L16.462 15.538Z" fill="#8C8B8B"/>
</g>
</svg>
