<svg width="113" height="33" viewBox="0 0 113 33" fill="none" xmlns="http://www.w3.org/2000/svg">
<g id="Group">
<g id="Group_2">
<g id="Clip path group">
<mask id="mask0_422_211" style="mask-type:luminance" maskUnits="userSpaceOnUse" x="0" y="0" width="113" height="33">
<g id="SVGID_2_">
<path id="Vector" d="M113 0H0V32.3444H113V0Z" fill="white"/>
</g>
</mask>
<g mask="url(#mask0_422_211)">
<g id="Group_3">
<g id="Clip path group_2">
<mask id="mask1_422_211" style="mask-type:luminance" maskUnits="userSpaceOnUse" x="-1" y="0" width="46" height="33">
<g id="SVGID_4_">
<path id="Vector_2" d="M3.74069 22.4006C3.68175 18.8628 6.53033 15.9766 10.0534 15.9766H12.0605H13.9906H14.6373C15.2774 15.9766 15.798 15.4576 15.798 14.8159V14.0415V12.239V10.1583C15.798 6.69579 18.5435 3.7981 22.0059 3.73916C25.5437 3.68023 28.43 6.53044 28.43 10.0535V12.239V14.0415V14.8159C28.43 15.456 28.9489 15.9766 29.5907 15.9766H30.239H32.1691H34.1779C37.7009 15.9766 40.5511 18.8628 40.4922 22.4006C40.4349 25.8631 37.5372 28.6085 34.0731 28.6085H32.1691H28.4316H26.544H26.3557H23.1994H21.0319H17.8755H17.6872H15.7997H12.0621H10.1598C6.69568 28.6069 3.79799 25.8631 3.74069 22.4006ZM12.0621 10.0535V11.6972C12.0621 11.9968 11.8198 12.239 11.5202 12.239H10.1795C4.63455 12.239 0.0408161 16.674 -0.000111713 22.2189C-0.0394024 27.8063 4.47575 32.3461 10.0534 32.3461H34.1762C39.7522 32.3461 44.269 27.8063 44.2297 22.2189C44.1904 16.674 39.5951 12.239 34.0502 12.239H32.7094C32.4098 12.239 32.1675 11.9968 32.1675 11.6972V10.1796C32.1675 4.6363 27.7342 0.0425649 22.1909 0C22.1647 0 22.1386 0 22.114 0C16.5625 0 12.0621 4.50042 12.0621 10.0535Z" fill="white"/>
</g>
</mask>
<g mask="url(#mask1_422_211)">
<path id="Vector_3" d="M-16.2124 16.1715L22.114 -22.1549L60.4421 16.1715L22.114 54.4996L-16.2124 16.1715Z" fill="url(#paint0_linear_422_211)"/>
</g>
</g>
</g>
</g>
</g>
<g id="Clip path group_3">
<mask id="mask2_422_211" style="mask-type:luminance" maskUnits="userSpaceOnUse" x="0" y="0" width="113" height="33">
<g id="SVGID_2__2">
<path id="Vector_4" d="M113 0H0V32.3444H113V0Z" fill="white"/>
</g>
</mask>
<g mask="url(#mask2_422_211)">
<g id="Group_4">
<g id="Clip path group_4">
<mask id="mask3_422_211" style="mask-type:luminance" maskUnits="userSpaceOnUse" x="5" y="5" width="34" height="22">
<g id="SVGID_7_">
<path id="Vector_5" d="M8.97479 22.3645C8.93386 21.7342 9.43318 21.2103 10.0536 21.2103H12.0607H14.3494H15.7983H16.2763H17.6875H20.0482H21.0321H23.198H24.1819H26.5426H27.9522H28.4302H29.8791H32.1677H34.1765C34.7986 21.2103 35.2963 21.7342 35.2553 22.3645C35.2177 22.9391 34.7135 23.3746 34.1372 23.3746H32.1677H29.8807H28.4302H27.9522H27.5314C27.2973 23.3746 27.096 23.2223 27.0174 23.0013C26.9143 22.7099 26.7505 22.448 26.541 22.2302C26.1464 21.8177 25.5915 21.5623 24.9776 21.5623C24.6796 21.5623 24.3964 21.6229 24.1377 21.7309C23.7563 21.8913 23.4288 22.1598 23.1964 22.4987C23.09 22.6542 23.0016 22.8229 22.9377 23.0046C22.8608 23.224 22.6578 23.3746 22.4253 23.3746H21.8016C21.5691 23.3746 21.3661 23.224 21.2891 23.0046C21.2253 22.8229 21.1385 22.6542 21.0305 22.4987C20.798 22.1598 20.4706 21.8913 20.0891 21.7309C19.8305 21.6212 19.5456 21.5623 19.2493 21.5623C18.6354 21.5623 18.0804 21.8193 17.6859 22.2302C17.4779 22.448 17.3142 22.7099 17.2111 23.0013C17.1325 23.2223 16.9311 23.3746 16.697 23.3746H16.2763H15.7983H14.3478H12.0607H10.0913C9.51503 23.3746 9.01244 22.9391 8.97479 22.3645ZM21.0321 17.3222V16.276V15.9765V14.3475V12.2389V10.091C21.0321 9.51478 21.4659 9.01055 22.0422 8.97289C22.6725 8.93033 23.1996 9.43129 23.1996 10.0534V12.2389V14.3475V15.9765V16.276V17.3222C23.1996 17.6218 22.9574 17.864 22.6578 17.864H21.574C21.2744 17.864 21.0321 17.6218 21.0321 17.3222ZM17.6875 10.0534V12.2389V14.5587V15.7505V15.9765V17.864H15.7999H15.7868H14.559H12.0624H10.0553C7.61107 17.864 5.62689 19.8466 5.62689 22.2924C5.62689 24.7383 7.61107 26.7208 10.0553 26.7208H12.0624H14.5573H15.7999H17.6875H19.0807H21.0321H23.198H25.1494H26.5426H28.4302H29.6728H32.1677H34.1765C36.6223 26.7208 38.6049 24.7383 38.6049 22.2924C38.6049 19.8466 36.6223 17.864 34.1765 17.864H32.1677H29.6712H28.4433H28.4302H26.5426V15.9765V15.7505V14.5587V12.2389V10.0534C26.5426 7.60754 24.5601 5.625 22.1142 5.625C19.6684 5.625 17.6875 7.60754 17.6875 10.0534Z" fill="white"/>
</g>
</mask>
<g mask="url(#mask3_422_211)">
<path id="Vector_6" d="M-4.92114 16.1729L22.1141 -10.864L49.151 16.1729L22.1141 43.2098L-4.92114 16.1729Z" fill="url(#paint1_linear_422_211)"/>
</g>
</g>
</g>
</g>
</g>
<g id="Clip path group_5">
<mask id="mask4_422_211" style="mask-type:luminance" maskUnits="userSpaceOnUse" x="0" y="0" width="113" height="33">
<g id="SVGID_2__3">
<path id="Vector_7" d="M113 0H0V32.3444H113V0Z" fill="white"/>
</g>
</mask>
<g mask="url(#mask4_422_211)">
<g id="Group_5">
<g id="Clip path group_6">
<mask id="mask5_422_211" style="mask-type:luminance" maskUnits="userSpaceOnUse" x="0" y="0" width="113" height="33">
<g id="SVGID_10_">
<path id="Vector_8" d="M113 0H0V32.3444H113V0Z" fill="white"/>
</g>
</mask>
<g mask="url(#mask5_422_211)">
<path id="Vector_9" d="M65.2257 16.4825C65.2257 15.438 66.0099 14.7242 66.966 14.7242C67.922 14.7242 68.7062 15.438 68.7062 16.4825C68.7062 17.4926 67.922 18.2047 66.966 18.2047C66.0099 18.2047 65.2257 17.4926 65.2257 16.4825Z" fill="#00B0EB"/>
</g>
</g>
<g id="Clip path group_7">
<mask id="mask6_422_211" style="mask-type:luminance" maskUnits="userSpaceOnUse" x="0" y="0" width="113" height="33">
<g id="SVGID_10__2">
<path id="Vector_10" d="M113 0H0V32.3444H113V0Z" fill="white"/>
</g>
</mask>
<g mask="url(#mask6_422_211)">
<path id="Vector_11" d="M92.2643 16.4825C92.2643 15.438 93.0485 14.7242 94.0046 14.7242C94.9607 14.7242 95.7448 15.438 95.7448 16.4825C95.7448 17.4926 94.9607 18.2047 94.0046 18.2047C93.0469 18.2064 92.2643 17.4926 92.2643 16.4825Z" fill="#00B0EB"/>
</g>
</g>
<g id="Clip path group_8">
<mask id="mask7_422_211" style="mask-type:luminance" maskUnits="userSpaceOnUse" x="0" y="0" width="113" height="33">
<g id="SVGID_10__3">
<path id="Vector_12" d="M113 0H0V32.3444H113V0Z" fill="white"/>
</g>
</mask>
<g mask="url(#mask7_422_211)">
<path id="Vector_13" d="M112.838 14.9386L111.404 13.6142C111.212 13.4374 110.922 13.4341 110.728 13.6093C109.403 14.7929 107.995 15.3446 106.296 15.3446C102.68 15.3446 100.432 12.9365 100.432 9.06141C100.432 5.29442 102.773 2.86003 106.397 2.86003C107.838 2.86003 109.133 3.34626 110.245 4.30397C110.441 4.47423 110.733 4.46604 110.921 4.28596L112.355 2.91078C112.455 2.81419 112.512 2.67831 112.509 2.53916C112.506 2.39837 112.445 2.26576 112.34 2.17408C110.783 0.792362 108.599 0 106.352 0C100.594 0 96.7254 3.66386 96.7254 9.11871C96.7254 14.5556 100.528 18.2063 106.186 18.2063C108.845 18.2063 111.021 17.3779 112.838 15.6753C112.939 15.5804 112.997 15.4461 112.997 15.3086C113 15.1678 112.941 15.0336 112.838 14.9386Z" fill="#00B0EB"/>
</g>
</g>
<g id="Clip path group_9">
<mask id="mask8_422_211" style="mask-type:luminance" maskUnits="userSpaceOnUse" x="0" y="0" width="113" height="33">
<g id="SVGID_10__4">
<path id="Vector_14" d="M113 0H0V32.3444H113V0Z" fill="white"/>
</g>
</mask>
<g mask="url(#mask8_422_211)">
<path id="Vector_15" d="M62.5673 0H60.0854C59.8088 0 59.5829 0.22592 59.5829 0.502592V6.39128H59.5763V12.7777L58.4893 11.0325L51.0568 0.219372C50.9635 0.0834921 50.8079 0.00163621 50.6426 0.00163621H47.9463C47.6696 0.00163621 47.4437 0.227559 47.4437 0.504231V17.7054C47.4437 17.982 47.6696 18.208 47.9463 18.208H50.4281C50.7048 18.208 50.9307 17.982 50.9307 17.7054V5.41393L52.0227 7.164L59.4552 17.9886C59.5485 18.1245 59.704 18.2063 59.8693 18.2063H62.5689C62.8456 18.2063 63.0715 17.9804 63.0715 17.7037V0.502592C63.0699 0.224283 62.844 0 62.5673 0Z" fill="#00B0EB"/>
</g>
</g>
<g id="Clip path group_10">
<mask id="mask9_422_211" style="mask-type:luminance" maskUnits="userSpaceOnUse" x="0" y="0" width="113" height="33">
<g id="SVGID_10__5">
<path id="Vector_16" d="M113 0H0V32.3444H113V0Z" fill="white"/>
</g>
</mask>
<g mask="url(#mask9_422_211)">
<path id="Vector_17" d="M89.5435 -2.09755e-05H86.2644C86.0647 -2.09755e-05 85.8846 0.117851 85.806 0.299571L81.7509 9.49195C81.4759 10.1222 81.2188 10.7624 80.9683 11.3845C80.8718 11.6235 80.7703 11.8789 80.6638 12.1392C80.5885 11.9624 80.5149 11.7855 80.4412 11.6071L80.3773 11.4565C80.122 10.8458 79.8322 10.155 79.5408 9.48704L75.4382 0.29466C75.358 0.114577 75.1779 -0.0032959 74.9798 -0.0032959H71.7007C71.424 -0.0032959 71.1981 0.222627 71.1981 0.499299V17.7004C71.1981 17.9771 71.424 18.203 71.7007 18.203H74.1661C74.4428 18.203 74.6687 17.9771 74.6687 17.7004V6.06875L75.1893 7.27203L79.2396 16.1697C79.3214 16.3482 79.4999 16.4644 79.6963 16.4644H81.5004C81.6969 16.4644 81.8769 16.3482 81.9572 16.1697L85.991 7.26384L86.5116 6.0622V17.6988C86.5116 17.9755 86.7375 18.2014 87.0142 18.2014H89.5452C89.8218 18.2014 90.0478 17.9755 90.0478 17.6988V0.502571C90.0461 0.224262 89.8202 -2.09755e-05 89.5435 -2.09755e-05Z" fill="#00B0EB"/>
</g>
</g>
<g id="Clip path group_11">
<mask id="mask10_422_211" style="mask-type:luminance" maskUnits="userSpaceOnUse" x="0" y="0" width="113" height="33">
<g id="SVGID_10__6">
<path id="Vector_18" d="M113 0H0V32.3444H113V0Z" fill="white"/>
</g>
</mask>
<g mask="url(#mask10_422_211)">
<path id="Vector_19" d="M64.9034 23.2256C64.4695 23.2256 64.2485 23.4695 64.2485 23.9475L64.3075 27.4788V27.4968C64.3075 27.6654 64.2371 27.7947 64.093 27.8913C63.9473 27.9879 63.741 28.0387 63.4791 28.0387C63.2892 28.0387 63.1288 28.0419 63.0043 28.0469C63.0436 27.9257 63.0633 27.7866 63.0633 27.6294C63.0633 27.1464 62.8439 26.6897 62.4117 26.2722C61.9795 25.8548 61.4966 25.6419 60.9743 25.6419C60.583 25.6419 60.2065 25.7762 59.8529 26.0381C59.5107 26.2919 59.2324 26.6242 59.0245 27.0237C59.1031 26.7617 59.1457 26.4736 59.1522 26.1658L59.2111 23.3893V23.3762L59.1997 23.368C59.0458 23.2714 58.8788 23.2223 58.7036 23.2223C58.4613 23.2223 58.2764 23.2829 58.1503 23.404C58.0242 23.5252 57.9604 23.6938 57.9604 23.9066L58.039 25.7123C58.0521 26.1331 58.0586 26.508 58.0586 26.8256C58.0586 27.3904 58.0373 27.7997 57.9931 28.0469C57.9293 28.0469 57.8622 28.0452 57.7901 28.0419C57.705 28.0387 57.6412 28.037 57.6019 28.037C57.3285 28.037 57.1091 27.9699 56.9503 27.8357C56.7931 27.7031 56.7129 27.5279 56.7129 27.3167C56.7129 27.099 56.726 26.9025 56.7522 26.7355L56.7538 26.7224L56.744 26.7143C56.5885 26.5784 56.4182 26.5096 56.2349 26.5096C55.8665 26.5096 55.6783 26.7503 55.6783 27.2234C55.6783 27.4853 55.5931 27.6883 55.4261 27.8275C55.2575 27.9666 55.0234 28.0387 54.7304 28.0387C54.457 28.0387 54.2376 27.9716 54.0788 27.8373C53.9216 27.7047 53.8414 27.5295 53.8414 27.3183C53.8414 27.1006 53.8545 26.9058 53.8807 26.7372L53.8823 26.7241L53.8725 26.7159C53.717 26.58 53.5467 26.5112 53.3634 26.5112C52.9934 26.5112 52.8068 26.7519 52.8068 27.225C52.8068 27.487 52.7216 27.69 52.5546 27.8291C52.3926 27.9634 52.1683 28.0338 51.8867 28.0387C51.4349 28.0305 51.2122 27.7604 51.2057 27.2152L51.1369 25.0067V24.9936L51.1238 24.9871C50.9765 24.9102 50.8013 24.8627 50.5999 24.843H50.5312C50.3675 24.843 50.2234 24.9052 50.1055 25.0248C49.9909 25.141 49.9304 25.3014 49.9271 25.4979C49.1036 25.6861 48.4782 25.9595 48.0673 26.3099C47.6515 26.6717 47.4403 27.0908 47.4403 27.5541C47.4403 27.9192 47.5893 28.2286 47.8807 28.4774C48.1721 28.7263 48.5388 28.8523 48.9694 28.8523C49.4016 28.8523 49.8256 28.6395 50.2316 28.2204C50.3151 28.6215 50.4821 28.9063 50.7293 29.0701C50.9748 29.2321 51.353 29.3173 51.849 29.3238L51.8556 29.3254H51.8736H51.908C51.9162 29.3254 51.9211 29.3238 51.9293 29.3222C52.5628 29.3042 53.0114 29.0586 53.2652 28.5904C53.3863 28.8065 53.5746 28.9833 53.8234 29.1143C54.0886 29.2534 54.3931 29.3254 54.7304 29.3254C55.3999 29.3254 55.8731 29.0782 56.1366 28.5904C56.2578 28.8065 56.4444 28.9833 56.6949 29.1143C56.9601 29.2534 57.2646 29.3254 57.6019 29.3254H59.7645C60.6813 29.3254 61.3672 29.2501 61.8076 29.1012C62.176 29.2501 62.7375 29.3254 63.4791 29.3254C64.7479 29.3254 65.4011 28.6853 65.4207 27.4231L65.46 23.4007V23.3876L65.4485 23.3811C65.2881 23.278 65.1047 23.2256 64.9034 23.2256ZM62.0728 27.6114C61.639 27.9012 60.9186 28.0485 59.9315 28.0485H59.1162C59.7203 27.2545 60.3227 26.8518 60.9039 26.8518C61.1331 26.8518 61.3721 26.9304 61.6128 27.0875C61.8453 27.2414 62.0008 27.4166 62.0728 27.6114ZM50.1252 27.2987C49.7437 27.5475 49.3819 27.6736 49.0512 27.6736C48.9055 27.6736 48.7729 27.649 48.6567 27.5999C48.5437 27.5606 48.4864 27.5066 48.4864 27.4428C48.4864 27.302 48.6632 27.1284 49.0103 26.9254C49.3541 26.7257 49.7012 26.5915 50.0417 26.5276L50.1252 27.2987Z" fill="#00B0EB"/>
</g>
</g>
<g id="Clip path group_12">
<mask id="mask11_422_211" style="mask-type:luminance" maskUnits="userSpaceOnUse" x="0" y="0" width="113" height="33">
<g id="SVGID_10__7">
<path id="Vector_20" d="M113 0H0V32.3444H113V0Z" fill="white"/>
</g>
</mask>
<g mask="url(#mask11_422_211)">
<path id="Vector_21" d="M67.6503 23.3812C67.4898 23.2781 67.3065 23.2257 67.1051 23.2257C66.9021 23.2257 66.7433 23.2928 66.6336 23.4238C66.5321 23.5482 66.4814 23.7119 66.4814 23.91V29.3239H66.7433C67.295 29.3239 67.5782 28.9507 67.5848 28.2156L67.6634 23.4009V23.3878L67.6503 23.3812Z" fill="#00B0EB"/>
</g>
</g>
<g id="Clip path group_13">
<mask id="mask12_422_211" style="mask-type:luminance" maskUnits="userSpaceOnUse" x="0" y="0" width="113" height="33">
<g id="SVGID_10__8">
<path id="Vector_22" d="M113 0H0V32.3444H113V0Z" fill="white"/>
</g>
</mask>
<g mask="url(#mask12_422_211)">
<path id="Vector_23" d="M53.4763 29.6987C53.0948 29.6987 52.7838 29.9967 52.7838 30.3634C52.7838 30.7301 53.0932 31.0281 53.4763 31.0281C53.8594 31.0281 54.1688 30.7301 54.1688 30.3634C54.1688 29.995 53.8577 29.6987 53.4763 29.6987Z" fill="#00B0EB"/>
</g>
</g>
<g id="Clip path group_14">
<mask id="mask13_422_211" style="mask-type:luminance" maskUnits="userSpaceOnUse" x="0" y="0" width="113" height="33">
<g id="SVGID_10__9">
<path id="Vector_24" d="M113 0H0V32.3444H113V0Z" fill="white"/>
</g>
</mask>
<g mask="url(#mask13_422_211)">
<path id="Vector_25" d="M56.0465 29.6987C55.6798 29.6987 55.3819 29.9967 55.3819 30.3634C55.3819 30.7301 55.6798 31.0281 56.0465 31.0281C56.4132 31.0281 56.7112 30.7301 56.7112 30.3634C56.7112 29.995 56.4132 29.6987 56.0465 29.6987Z" fill="#00B0EB"/>
</g>
</g>
<g id="Clip path group_15">
<mask id="mask14_422_211" style="mask-type:luminance" maskUnits="userSpaceOnUse" x="0" y="0" width="113" height="33">
<g id="SVGID_10__10">
<path id="Vector_26" d="M113 0H0V32.3444H113V0Z" fill="white"/>
</g>
</mask>
<g mask="url(#mask14_422_211)">
<path id="Vector_27" d="M52.0356 29.6987C51.6542 29.6987 51.3431 29.9967 51.3431 30.3634C51.3431 30.7301 51.6526 31.0281 52.0356 31.0281C52.4187 31.0281 52.7281 30.7301 52.7281 30.3634C52.7265 29.995 52.4171 29.6987 52.0356 29.6987Z" fill="#00B0EB"/>
</g>
</g>
<g id="Clip path group_16">
<mask id="mask15_422_211" style="mask-type:luminance" maskUnits="userSpaceOnUse" x="0" y="0" width="113" height="33">
<g id="SVGID_10__11">
<path id="Vector_28" d="M113 0H0V32.3444H113V0Z" fill="white"/>
</g>
</mask>
<g mask="url(#mask15_422_211)">
<path id="Vector_29" d="M49.606 23.5336C49.2246 23.5336 48.9135 23.8315 48.9135 24.1982C48.9135 24.565 49.223 24.8629 49.606 24.8629C49.9891 24.8629 50.2985 24.565 50.2985 24.1982C50.2985 23.8315 49.9875 23.5336 49.606 23.5336Z" fill="#00B0EB"/>
</g>
</g>
<g id="Clip path group_17">
<mask id="mask16_422_211" style="mask-type:luminance" maskUnits="userSpaceOnUse" x="0" y="0" width="113" height="33">
<g id="SVGID_10__12">
<path id="Vector_30" d="M113 0H0V32.3444H113V0Z" fill="white"/>
</g>
</mask>
<g mask="url(#mask16_422_211)">
<path id="Vector_31" d="M48.1638 23.5336C47.7823 23.5336 47.4713 23.8315 47.4713 24.1982C47.4713 24.565 47.7807 24.8629 48.1638 24.8629C48.5452 24.8629 48.8562 24.565 48.8562 24.1982C48.8562 23.8315 48.5468 23.5336 48.1638 23.5336Z" fill="#00B0EB"/>
</g>
</g>
<g id="Clip path group_18">
<mask id="mask17_422_211" style="mask-type:luminance" maskUnits="userSpaceOnUse" x="0" y="0" width="113" height="33">
<g id="SVGID_10__13">
<path id="Vector_32" d="M113 0H0V32.3444H113V0Z" fill="white"/>
</g>
</mask>
<g mask="url(#mask17_422_211)">
<path id="Vector_33" d="M100.293 25.8992C99.9736 25.8992 99.6855 26.0089 99.4399 26.2266C99.196 26.4411 98.9275 26.8061 98.6393 27.3087C98.4511 27.6247 98.2923 27.8293 98.1646 27.9145C98.0533 27.9881 97.8994 28.0307 97.7078 28.0389C97.4115 28.0323 97.1692 28.0012 96.9891 27.9521C97.125 27.8113 97.2036 27.5756 97.2216 27.2481L97.2232 27.2236L97.1987 27.222C97.0071 27.2089 96.7861 27.1385 96.5455 27.0124C96.3015 26.8847 96.0773 26.7472 95.8792 26.6048C95.6794 26.4591 95.429 26.3248 95.1376 26.2053C94.8429 26.0842 94.5515 26.0236 94.2682 26.0236C93.7935 26.0236 93.4071 26.1153 93.119 26.297C92.8276 26.4803 92.6803 26.7112 92.6803 26.9829C92.6803 27.1237 92.7114 27.2612 92.7719 27.3906L92.8718 27.5838L92.8947 27.5707C93.3335 27.3349 93.7624 27.2154 94.17 27.2154C94.45 27.2154 94.7266 27.3005 94.9902 27.4675C94.2322 27.7426 93.6134 28.124 93.1501 28.5988C92.6753 29.0915 92.4347 29.6236 92.4347 30.1819C92.4347 30.8907 92.6622 31.4342 93.1124 31.7993C93.561 32.1628 94.1684 32.3478 94.9182 32.3478C95.4584 32.3478 95.9512 32.2201 96.3867 31.9663C96.8254 31.7109 97.0481 31.4342 97.0481 31.1428V31.133C97.0481 31.0217 97.0137 30.9186 96.9433 30.8252L96.7812 30.6386L96.7632 30.6501C96.259 30.9611 95.6614 31.1183 94.9886 31.1183C94.5629 31.1183 94.2077 31.0364 93.9359 30.876C93.6674 30.7188 93.5299 30.4831 93.5299 30.1802C93.5299 29.4059 94.2781 28.7052 95.7547 28.0978C96.2066 28.8165 96.8091 29.2258 97.5474 29.3093C97.59 29.3273 97.644 29.3273 97.6931 29.324C97.7029 29.324 97.7111 29.3224 97.7193 29.3224C97.7618 29.324 97.806 29.3256 97.8486 29.3256C97.8961 29.3256 97.937 29.3158 97.9747 29.2945C98.3528 29.2258 98.6672 29.0342 98.9127 28.7248C99.4202 29.193 99.9621 29.4304 100.522 29.4304C100.959 29.4304 101.329 29.288 101.621 29.008C101.912 28.7281 102.061 28.3696 102.061 27.9439C102.061 27.4004 101.886 26.9191 101.539 26.5131C101.188 26.1054 100.771 25.8992 100.293 25.8992ZM100.976 27.8768C100.976 27.9636 100.925 28.0372 100.82 28.1011C100.714 28.1666 100.586 28.2009 100.44 28.2009C100.126 28.2009 99.823 28.1109 99.5398 27.9341C99.8181 27.3988 100.085 27.127 100.332 27.127C100.475 27.127 100.617 27.2089 100.759 27.3726C100.903 27.5379 100.976 27.7065 100.976 27.8768Z" fill="#00B0EB"/>
</g>
</g>
<g id="Clip path group_19">
<mask id="mask18_422_211" style="mask-type:luminance" maskUnits="userSpaceOnUse" x="0" y="0" width="113" height="33">
<g id="SVGID_10__14">
<path id="Vector_34" d="M113 0H0V32.3444H113V0Z" fill="white"/>
</g>
</mask>
<g mask="url(#mask18_422_211)">
<path id="Vector_35" d="M103.496 23.2257C103.292 23.2257 103.133 23.2928 103.025 23.4238C102.924 23.5482 102.873 23.7119 102.873 23.91V29.3239H103.135C103.686 29.3239 103.97 28.9507 103.976 28.2156L104.055 23.4009V23.3878L104.043 23.3796C103.881 23.2781 103.698 23.2257 103.496 23.2257Z" fill="#00B0EB"/>
</g>
</g>
<g id="Clip path group_20">
<mask id="mask19_422_211" style="mask-type:luminance" maskUnits="userSpaceOnUse" x="0" y="0" width="113" height="33">
<g id="SVGID_10__15">
<path id="Vector_36" d="M113 0H0V32.3444H113V0Z" fill="white"/>
</g>
</mask>
<g mask="url(#mask19_422_211)">
<path id="Vector_37" d="M109.613 29.707C109.164 29.6383 108.783 30.0197 108.851 30.4683C108.894 30.7482 109.123 30.9774 109.403 31.02C109.852 31.0888 110.233 30.7073 110.164 30.2587C110.122 29.9772 109.893 29.7496 109.613 29.707Z" fill="#00B0EB"/>
</g>
</g>
<g id="Clip path group_21">
<mask id="mask20_422_211" style="mask-type:luminance" maskUnits="userSpaceOnUse" x="0" y="0" width="113" height="33">
<g id="SVGID_10__16">
<path id="Vector_38" d="M113 0H0V32.3444H113V0Z" fill="white"/>
</g>
</mask>
<g mask="url(#mask20_422_211)">
<path id="Vector_39" d="M95.4894 29.2175C95.0408 29.1488 94.6594 29.5302 94.7281 29.9788C94.7707 30.2587 94.9999 30.4863 95.2799 30.5305C95.7284 30.5993 96.1099 30.2178 96.0411 29.7692C95.9969 29.4893 95.7694 29.2617 95.4894 29.2175Z" fill="#00B0EB"/>
</g>
</g>
<g id="Clip path group_22">
<mask id="mask21_422_211" style="mask-type:luminance" maskUnits="userSpaceOnUse" x="0" y="0" width="113" height="33">
<g id="SVGID_10__17">
<path id="Vector_40" d="M113 0H0V32.3444H113V0Z" fill="white"/>
</g>
</mask>
<g mask="url(#mask21_422_211)">
<path id="Vector_41" d="M112.989 23.3812C112.828 23.2781 112.645 23.2257 112.443 23.2257C112.01 23.2257 111.789 23.468 111.789 23.9477L111.847 27.4789V27.4986C111.847 27.6672 111.777 27.7965 111.633 27.8931C111.487 27.9897 111.281 28.0388 111.019 28.0388C110.746 28.0388 110.526 27.9717 110.368 27.8374C110.21 27.7048 110.13 27.5297 110.13 27.3185C110.13 27.1008 110.143 26.9043 110.169 26.7373L110.171 26.7242L110.161 26.716C110.006 26.5801 109.835 26.5114 109.652 26.5114C109.284 26.5114 109.095 26.752 109.095 27.2252C109.095 27.4871 109.01 27.6901 108.843 27.8293C108.675 27.9701 108.441 28.0404 108.148 28.0404C107.63 28.0404 107.242 27.7376 106.992 27.1417C106.939 26.9992 106.897 26.8634 106.864 26.7373L106.861 26.7258L106.849 26.7209C106.715 26.6571 106.556 26.6243 106.376 26.6243C106.167 26.6243 106 26.6849 105.877 26.8061C105.754 26.9272 105.694 27.0795 105.694 27.2628C105.694 27.4478 105.793 27.7556 105.992 28.178C106.186 28.5938 106.285 28.9016 106.285 29.0931C106.285 29.432 106.16 29.7447 105.918 30.0263C105.676 30.3062 105.397 30.447 105.093 30.447C104.796 30.447 104.482 30.3782 104.16 30.2407L104.137 30.2309L104.066 30.3652C104.025 30.4437 104.004 30.524 104.004 30.6025C104.004 30.8416 104.128 31.0675 104.371 31.277C104.613 31.4849 104.908 31.5897 105.248 31.5897C105.797 31.5897 106.262 31.3752 106.628 30.9529C106.993 30.5321 107.205 29.9837 107.259 29.3223C107.265 29.2585 107.268 29.1979 107.268 29.1406C107.268 29.0964 107.267 29.0538 107.264 29.0096C107.524 29.2192 107.822 29.3256 108.148 29.3256C108.817 29.3256 109.289 29.0784 109.552 28.5905C109.673 28.8066 109.862 28.9834 110.11 29.1144C110.376 29.2536 110.68 29.3256 111.017 29.3256C112.286 29.3256 112.939 28.6855 112.959 27.4233L112.998 23.4009V23.3878L112.989 23.3812Z" fill="#00B0EB"/>
</g>
</g>
<g id="Clip path group_23">
<mask id="mask22_422_211" style="mask-type:luminance" maskUnits="userSpaceOnUse" x="0" y="0" width="113" height="33">
<g id="SVGID_10__18">
<path id="Vector_42" d="M113 0H0V32.3444H113V0Z" fill="white"/>
</g>
</mask>
<g mask="url(#mask22_422_211)">
<path id="Vector_43" d="M73.7715 29.3256H73.7961H73.8223C73.8272 29.3256 73.8304 29.3239 73.8321 29.3239C74.554 29.3157 75.1139 29.1668 75.4954 28.8819C75.8899 28.5856 76.0897 28.1681 76.0897 27.641C76.0897 27.1384 76.034 26.5932 75.9227 26.0235L75.921 26.012L75.9112 26.0071C75.7573 25.9236 75.5871 25.8811 75.407 25.8811C75.0255 25.8811 74.8307 26.0726 74.8307 26.4524C74.8307 26.6129 74.8831 26.824 74.9846 27.0843C75.0845 27.3381 75.1352 27.5067 75.1352 27.5853C75.1352 27.7114 74.9961 27.8194 74.721 27.9062C74.4493 27.9929 74.1415 28.0371 73.8108 28.0404C73.354 28.0339 73.1298 27.7654 73.1232 27.2153L73.0545 25.0069V24.9938L73.0414 24.9872C72.894 24.9103 72.7188 24.8628 72.5175 24.8431H72.4487C72.285 24.8431 72.1409 24.9054 72.0231 25.0249C71.9085 25.1411 71.8479 25.3015 71.8446 25.4996C71.0212 25.6879 70.3958 25.9613 69.9849 26.3116C69.569 26.6734 69.3578 27.0925 69.3578 27.5558C69.3578 27.9209 69.5068 28.2303 69.7982 28.4792C70.0896 28.728 70.4564 28.8541 70.8869 28.8541C71.3191 28.8541 71.7431 28.6412 72.1491 28.2221C72.2326 28.6232 72.3996 28.9081 72.6468 29.0718C72.8907 29.2339 73.2673 29.319 73.7666 29.3256H73.7715ZM72.0362 27.2988C71.6531 27.5476 71.2929 27.6737 70.9622 27.6737C70.8165 27.6737 70.6839 27.6492 70.5677 27.6C70.4547 27.5607 70.3974 27.5067 70.3974 27.4429C70.3974 27.3021 70.5742 27.1285 70.9213 26.9255C71.2651 26.7258 71.6121 26.5916 71.9527 26.5277L72.0362 27.2988Z" fill="#00B0EB"/>
</g>
</g>
<g id="Clip path group_24">
<mask id="mask23_422_211" style="mask-type:luminance" maskUnits="userSpaceOnUse" x="0" y="0" width="113" height="33">
<g id="SVGID_10__19">
<path id="Vector_44" d="M113 0H0V32.3444H113V0Z" fill="white"/>
</g>
</mask>
<g mask="url(#mask23_422_211)">
<path id="Vector_45" d="M82.5727 27.3119L82.553 27.3299C82.0881 27.7326 81.5921 27.9372 81.0764 27.9372C80.8619 27.9372 80.6589 27.8472 80.4756 27.6704C80.2906 27.4936 80.1989 27.3217 80.1989 27.1596C80.1989 27.0417 80.2595 26.9484 80.3839 26.8731C80.5099 26.7978 80.6802 26.7585 80.8914 26.7585C81.1484 26.7585 81.4627 26.8404 81.8245 27.0008L81.8425 27.009L82.003 26.8142C82.1045 26.6849 82.1552 26.5424 82.1552 26.3934C82.1552 26.1528 82.0243 25.9482 81.7656 25.7828C81.5102 25.6207 81.1959 25.5372 80.8325 25.5372C80.3233 25.5372 79.8993 25.6797 79.5719 25.9596C79.2428 26.2396 79.0775 26.6112 79.0775 27.063C79.0775 27.4559 79.197 27.7801 79.4311 28.024C79.3116 28.0322 79.1168 28.0371 78.8352 28.0371C78.5634 28.0371 78.3686 27.9765 78.2573 27.857C78.1443 27.7359 78.087 27.5362 78.087 27.2611L78.1459 23.3992V23.3861L78.1345 23.3795C77.974 23.2764 77.7907 23.224 77.5893 23.224C77.3994 23.224 77.2439 23.2911 77.1277 23.4205C77.0131 23.5498 76.9541 23.72 76.9541 23.928L77.0425 27.451C77.0556 28.1075 77.1964 28.5888 77.4616 28.8819C77.7137 29.1602 78.1492 29.3091 78.7533 29.3222C78.7566 29.3222 78.7615 29.3239 78.768 29.3239H78.8401C78.935 29.3222 79.048 29.319 79.1822 29.3141C79.3443 29.3075 79.5506 29.301 79.7912 29.2944C80.0335 29.2879 80.2365 29.2813 80.4003 29.2764C81.1533 29.2518 81.7656 29.1258 82.2191 28.9048C82.6791 28.6805 82.9116 28.4136 82.9116 28.1091C82.9116 27.8538 82.8035 27.5902 82.5923 27.3299L82.5727 27.3119Z" fill="#00B0EB"/>
</g>
</g>
<g id="Clip path group_25">
<mask id="mask24_422_211" style="mask-type:luminance" maskUnits="userSpaceOnUse" x="0" y="0" width="113" height="33">
<g id="SVGID_10__20">
<path id="Vector_46" d="M113 0H0V32.3444H113V0Z" fill="white"/>
</g>
</mask>
<g mask="url(#mask24_422_211)">
<path id="Vector_47" d="M88.157 23.2257C87.7231 23.2257 87.5021 23.468 87.5021 23.9477L87.561 27.4789V27.4986C87.561 27.6672 87.4906 27.7965 87.3466 27.8931C87.2009 27.9897 86.9946 28.0388 86.7327 28.0388C86.2153 28.0388 85.8273 27.7359 85.5769 27.14C85.5245 26.996 85.4819 26.8601 85.4492 26.7357L85.4459 26.7242L85.4344 26.7193C85.3002 26.6555 85.1414 26.6227 84.9613 26.6227C84.7518 26.6227 84.5848 26.6833 84.462 26.8044C84.3392 26.9256 84.277 27.0778 84.277 27.2612C84.277 27.4462 84.3769 27.754 84.5749 28.1763C84.7698 28.5922 84.868 28.8999 84.868 29.0915C84.868 29.4304 84.7452 29.743 84.5013 30.0246C84.259 30.3046 83.9807 30.4454 83.6762 30.4454C83.3799 30.4454 83.0655 30.3766 82.743 30.2391L82.7201 30.2293L82.6497 30.3635C82.6088 30.4421 82.5875 30.5223 82.5875 30.6009C82.5875 30.8399 82.7119 31.0658 82.9542 31.2754C83.1965 31.4833 83.4912 31.5881 83.8301 31.5881C84.3785 31.5881 84.8434 31.3736 85.2102 30.9512C85.5752 30.5305 85.788 29.9821 85.8404 29.3207C85.847 29.2568 85.8503 29.1963 85.8503 29.139C85.8503 29.0948 85.8486 29.0522 85.8454 29.008C86.1057 29.2175 86.4036 29.3239 86.7294 29.3239C87.9981 29.3239 88.6514 28.6838 88.671 27.4216L88.7103 23.3992V23.3861L88.6988 23.3796C88.5417 23.2781 88.3583 23.2257 88.157 23.2257Z" fill="#00B0EB"/>
</g>
</g>
<g id="Clip path group_26">
<mask id="mask25_422_211" style="mask-type:luminance" maskUnits="userSpaceOnUse" x="0" y="0" width="113" height="33">
<g id="SVGID_10__21">
<path id="Vector_48" d="M113 0H0V32.3444H113V0Z" fill="white"/>
</g>
</mask>
<g mask="url(#mask25_422_211)">
<path id="Vector_49" d="M90.9039 23.3812C90.7435 23.2781 90.5602 23.2257 90.3588 23.2257C90.1541 23.2257 89.997 23.2928 89.8873 23.4238C89.7858 23.5482 89.735 23.7119 89.735 23.91V29.3239H89.997C90.5487 29.3239 90.8319 28.9507 90.8385 28.2156L90.917 23.4009V23.3878L90.9039 23.3812Z" fill="#00B0EB"/>
</g>
</g>
<g id="Clip path group_27">
<mask id="mask26_422_211" style="mask-type:luminance" maskUnits="userSpaceOnUse" x="0" y="0" width="113" height="33">
<g id="SVGID_10__22">
<path id="Vector_50" d="M113 0H0V32.3444H113V0Z" fill="white"/>
</g>
</mask>
<g mask="url(#mask26_422_211)">
<path id="Vector_51" d="M75.1008 29.6987C74.7194 29.6987 74.4083 29.9967 74.4083 30.3634C74.4083 30.7301 74.7177 31.0281 75.1008 31.0281C75.4822 31.0281 75.7933 30.7301 75.7933 30.3634C75.7933 29.995 75.4822 29.6987 75.1008 29.6987Z" fill="#00B0EB"/>
</g>
</g>
<g id="Clip path group_28">
<mask id="mask27_422_211" style="mask-type:luminance" maskUnits="userSpaceOnUse" x="0" y="0" width="113" height="33">
<g id="SVGID_10__23">
<path id="Vector_52" d="M113 0H0V32.3444H113V0Z" fill="white"/>
</g>
</mask>
<g mask="url(#mask27_422_211)">
<path id="Vector_53" d="M73.6585 29.6987C73.2771 29.6987 72.966 29.9967 72.966 30.3634C72.966 30.7301 73.2754 31.0281 73.6585 31.0281C74.0416 31.0281 74.351 30.7301 74.351 30.3634C74.351 29.995 74.0416 29.6987 73.6585 29.6987Z" fill="#00B0EB"/>
</g>
</g>
<g id="Clip path group_29">
<mask id="mask28_422_211" style="mask-type:luminance" maskUnits="userSpaceOnUse" x="0" y="0" width="113" height="33">
<g id="SVGID_10__24">
<path id="Vector_54" d="M113 0H0V32.3444H113V0Z" fill="white"/>
</g>
</mask>
<g mask="url(#mask28_422_211)">
<path id="Vector_55" d="M71.5173 23.5336C71.1358 23.5336 70.8248 23.8315 70.8248 24.1982C70.8248 24.565 71.1342 24.8629 71.5173 24.8629C71.9004 24.8629 72.2098 24.565 72.2098 24.1982C72.2098 23.8315 71.8987 23.5336 71.5173 23.5336Z" fill="#00B0EB"/>
</g>
</g>
<g id="Clip path group_30">
<mask id="mask29_422_211" style="mask-type:luminance" maskUnits="userSpaceOnUse" x="0" y="0" width="113" height="33">
<g id="SVGID_10__25">
<path id="Vector_56" d="M113 0H0V32.3444H113V0Z" fill="white"/>
</g>
</mask>
<g mask="url(#mask29_422_211)">
<path id="Vector_57" d="M70.075 23.5336C69.6936 23.5336 69.3825 23.8315 69.3825 24.1982C69.3825 24.565 69.6919 24.8629 70.075 24.8629C70.4581 24.8629 70.7675 24.565 70.7675 24.1982C70.7675 23.8315 70.4581 23.5336 70.075 23.5336Z" fill="#00B0EB"/>
</g>
</g>
</g>
</g>
</g>
</g>
</g>
<defs>
<linearGradient id="paint0_linear_422_211" x1="5.91322" y1="32.3696" x2="32.2577" y2="6.02514" gradientUnits="userSpaceOnUse">
<stop stop-color="#9185BE"/>
<stop offset="0.1" stop-color="#9185BE"/>
<stop offset="0.9" stop-color="#00B0EB"/>
<stop offset="1" stop-color="#00B0EB"/>
</linearGradient>
<linearGradient id="paint1_linear_422_211" x1="9.89301" y1="28.3953" x2="28.3052" y2="9.98309" gradientUnits="userSpaceOnUse">
<stop stop-color="#9185BE"/>
<stop offset="0.1" stop-color="#9185BE"/>
<stop offset="0.9" stop-color="#00B0EB"/>
<stop offset="1" stop-color="#00B0EB"/>
</linearGradient>
</defs>
</svg>
