<svg width="44" height="42" viewBox="0 0 44 42" fill="none" xmlns="http://www.w3.org/2000/svg">
<g id="Group 5">
<path id="Vector" d="M30.05 20H13.95C13.4253 20 13 20.4253 13 20.95V21.05C13 21.5747 13.4253 22 13.95 22H30.05C30.5747 22 31 21.5747 31 21.05V20.95C31 20.4253 30.5747 20 30.05 20Z" fill="#8C8B8B"/>
<path id="Vector_2" d="M30.05 25H13.95C13.4253 25 13 25.4253 13 25.95V26.05C13 26.5747 13.4253 27 13.95 27H30.05C30.5747 27 31 26.5747 31 26.05V25.95C31 25.4253 30.5747 25 30.05 25Z" fill="#8C8B8B"/>
<path id="Vector_3" d="M30.05 15H13.95C13.4253 15 13 15.4253 13 15.95V16.05C13 16.5747 13.4253 17 13.95 17H30.05C30.5747 17 31 16.5747 31 16.05V15.95C31 15.4253 30.5747 15 30.05 15Z" fill="#8C8B8B"/>
</g>
</svg>
