<svg width="24" height="24" viewBox="0 0 24 24" fill="none" xmlns="http://www.w3.org/2000/svg">
<g id="ci:mail">
<path id="Vector" d="M4 6L10.108 10.612L10.11 10.614C10.788 11.111 11.127 11.36 11.499 11.456C11.8276 11.541 12.1724 11.541 12.501 11.456C12.873 11.36 13.213 11.111 13.893 10.612C13.893 10.612 17.81 7.606 20 6M3 15.8V8.2C3 7.08 3 6.52 3.218 6.092C3.41 5.715 3.715 5.41 4.092 5.218C4.52 5 5.08 5 6.2 5H17.8C18.92 5 19.48 5 19.907 5.218C20.284 5.41 20.59 5.715 20.782 6.092C21 6.519 21 7.079 21 8.197V15.804C21 16.922 21 17.48 20.782 17.908C20.5899 18.2844 20.2836 18.5903 19.907 18.782C19.48 19 18.921 19 17.803 19H6.197C5.079 19 4.519 19 4.092 18.782C3.71569 18.5903 3.40974 18.2843 3.218 17.908C3 17.48 3 16.92 3 15.8Z" stroke="white" stroke-width="2" stroke-linecap="round" stroke-linejoin="round"/>
</g>
</svg>
