<svg width="173" height="86" viewBox="0 0 173 86" fill="none" xmlns="http://www.w3.org/2000/svg">
<g id="Mask group">
<mask id="mask0_318_1092" style="mask-type:alpha" maskUnits="userSpaceOnUse" x="0" y="0" width="173" height="86">
<rect id="Rectangle 46177" width="173" height="86" fill="#D9D9D9"/>
</mask>
<g mask="url(#mask0_318_1092)">
<g id="Group 12">
<path id="Vector" d="M47.0609 43.6215C47.0609 40.8578 49.1359 38.9691 51.6657 38.9691C54.1955 38.9691 56.2704 40.8578 56.2704 43.6215C56.2704 46.2942 54.1955 48.1786 51.6657 48.1786C49.1359 48.1786 47.0609 46.2942 47.0609 43.6215Z" fill="#00B0EB"/>
<path id="Vector_2" d="M118.605 43.6215C118.605 40.8578 120.68 38.9691 123.21 38.9691C125.74 38.9691 127.815 40.8578 127.815 43.6215C127.815 46.2942 125.74 48.1786 123.21 48.1786C120.676 48.1829 118.605 46.2942 118.605 43.6215Z" fill="#00B0EB"/>
<path id="Vector_3" d="M173.043 39.5366L169.249 36.0321C168.742 35.5643 167.975 35.5556 167.46 36.0191C163.955 39.1511 160.23 40.6109 155.733 40.6109C146.164 40.6109 140.217 34.2388 140.217 23.9853C140.217 14.0178 146.411 7.57637 156.002 7.57637C159.814 7.57637 163.241 8.86292 166.182 11.397C166.702 11.8475 167.473 11.8259 167.971 11.3494L171.766 7.71065C172.03 7.45508 172.181 7.09553 172.173 6.72733C172.164 6.35479 172.004 6.00391 171.727 5.76133C167.607 2.10527 161.828 0.00866699 155.881 0.00866699C140.646 0.00866699 130.41 9.70329 130.41 24.1369C130.41 38.5229 140.472 48.1829 155.443 48.1829C162.478 48.1829 168.235 45.991 173.043 41.4859C173.312 41.2347 173.464 40.8794 173.464 40.5156C173.472 40.143 173.316 39.7878 173.043 39.5366Z" fill="#00B0EB"/>
<path id="Vector_4" d="M40.0261 0.00866699H33.459C32.7269 0.00866699 32.1291 0.606456 32.1291 1.33853V16.9201H32.1118V33.8186L29.2355 29.2008L9.56898 0.58913C9.32207 0.229589 8.91054 0.0129964 8.47303 0.0129964H1.33851C0.606432 0.0129964 0.00863647 0.610792 0.00863647 1.34287V46.8574C0.00863647 47.5894 0.606432 48.1872 1.33851 48.1872H7.90556C8.63764 48.1872 9.23543 47.5894 9.23543 46.8574V14.334L12.1248 18.9647L31.7913 47.6068C32.0382 47.9663 32.4497 48.1829 32.8872 48.1829H40.0304C40.7625 48.1829 41.3603 47.5851 41.3603 46.853V1.33853C41.3559 0.602124 40.7581 0.00866699 40.0261 0.00866699Z" fill="#00B0EB"/>
<path id="Vector_5" d="M111.406 0.0086655H102.729C102.201 0.0086655 101.724 0.320558 101.516 0.801391L90.7864 25.1246C90.0587 26.7923 89.3786 28.4861 88.7158 30.1322C88.4602 30.7646 88.1917 31.4404 87.9101 32.1292C87.7108 31.6613 87.5159 31.1935 87.321 30.7213L87.152 30.3228C86.4763 28.707 85.7095 26.879 84.9385 25.1116L74.0829 0.788396C73.8706 0.311895 73.3942 0 72.87 0H64.1933C63.4613 0 62.8635 0.597795 62.8635 1.32987V46.8444C62.8635 47.5764 63.4613 48.1742 64.1933 48.1742H70.7171C71.4491 48.1742 72.0469 47.5764 72.0469 46.8444V16.0667L73.4245 19.2506L84.1414 42.7941C84.358 43.2663 84.8302 43.5738 85.35 43.5738H90.1236C90.6435 43.5738 91.12 43.2663 91.3322 42.7941L102.006 19.229L103.383 16.0494V46.84C103.383 47.5721 103.981 48.1699 104.713 48.1699H111.41C112.142 48.1699 112.74 47.5721 112.74 46.84V1.33853C112.736 0.602122 112.138 0.0086655 111.406 0.0086655Z" fill="#00B0EB"/>
<path id="Vector_6" d="M46.2076 61.4643C45.0597 61.4643 44.4749 62.1097 44.4749 63.3746L44.6308 72.7184V72.766C44.6308 73.2122 44.4445 73.5544 44.0633 73.81C43.6778 74.0656 43.132 74.1999 42.4389 74.1999C41.9364 74.1999 41.5119 74.2085 41.1827 74.2215C41.2866 73.901 41.3386 73.5328 41.3386 73.1169C41.3386 71.839 40.7582 70.6304 39.6146 69.5258C38.471 68.4212 37.1931 67.8581 35.8112 67.8581C34.7759 67.8581 33.7796 68.2133 32.8439 68.9064C31.9386 69.5778 31.2022 70.4572 30.652 71.5141C30.8599 70.821 30.9726 70.0586 30.9899 69.2443L31.1458 61.8975V61.8628L31.1155 61.8412C30.7083 61.5856 30.2665 61.4556 29.803 61.4556C29.1619 61.4556 28.6724 61.6159 28.3388 61.9365C28.0053 62.257 27.8363 62.7032 27.8363 63.2663L28.0442 68.0443C28.0789 69.1576 28.0962 70.1496 28.0962 70.99C28.0962 72.4845 28.0399 73.5674 27.923 74.2215C27.754 74.2215 27.5764 74.2172 27.3858 74.2085C27.1606 74.1999 26.9916 74.1955 26.8877 74.1955C26.1642 74.1955 25.5838 74.0179 25.1636 73.6627C24.7477 73.3118 24.5355 72.8483 24.5355 72.2895C24.5355 71.7134 24.5701 71.1936 24.6394 70.7517L24.6438 70.7171L24.6178 70.6954C24.2063 70.3359 23.7557 70.1539 23.2706 70.1539C22.2959 70.1539 21.7978 70.7907 21.7978 72.0426C21.7978 72.7357 21.5725 73.2729 21.1307 73.6411C20.6845 74.0093 20.065 74.1999 19.2896 74.1999C18.5662 74.1999 17.9857 74.0223 17.5656 73.667C17.1497 73.3162 16.9374 72.8527 16.9374 72.2939C16.9374 71.7177 16.9721 71.2022 17.0414 70.7561L17.0457 70.7214L17.0198 70.6997C16.6082 70.3402 16.1577 70.1583 15.6725 70.1583C14.6936 70.1583 14.1997 70.795 14.1997 72.0469C14.1997 72.74 13.9745 73.2772 13.5326 73.6454C13.1038 74.0006 12.5103 74.1869 11.7652 74.1999C10.5697 74.1782 9.98053 73.4635 9.9632 72.021L9.78127 66.1773V66.1427L9.74661 66.1253C9.35675 65.9217 8.89324 65.7961 8.36042 65.7441H8.17849C7.74531 65.7441 7.36411 65.9087 7.05221 66.225C6.74899 66.5325 6.58871 66.957 6.58005 67.4769C4.40114 67.975 2.74639 68.6984 1.6591 69.6255C0.558813 70.5828 0 71.6917 0 72.9176C0 73.8836 0.394197 74.7024 1.16526 75.3608C1.93633 76.0192 2.90665 76.3528 4.04592 76.3528C5.18953 76.3528 6.31147 75.7896 7.38576 74.6807C7.60668 75.742 8.04853 76.4957 8.70264 76.9289C9.35241 77.3578 10.3531 77.583 11.6656 77.6004L11.6829 77.6047H11.7306H11.8216C11.8432 77.6047 11.8562 77.6003 11.8779 77.596C13.5543 77.5484 14.7412 76.8986 15.4126 75.6597C15.7332 76.2315 16.2314 76.6993 16.8898 77.0459C17.5915 77.4141 18.3973 77.6047 19.2896 77.6047C21.0613 77.6047 22.3132 76.9506 23.0107 75.6597C23.3312 76.2315 23.825 76.6993 24.4878 77.0459C25.1896 77.4141 25.9953 77.6047 26.8877 77.6047H32.61C35.0358 77.6047 36.8509 77.4054 38.0161 77.0112C38.9908 77.4054 40.4766 77.6047 42.4389 77.6047C45.7961 77.6047 47.5245 75.9109 47.5765 72.5711L47.6804 61.9278V61.8931L47.6501 61.8758C47.2256 61.6029 46.7404 61.4643 46.2076 61.4643ZM38.7179 73.0693C37.5699 73.836 35.6639 74.2259 33.0518 74.2259H30.8946C32.493 72.1249 34.0871 71.0593 35.6249 71.0593C36.2314 71.0593 36.8638 71.2672 37.5006 71.6831C38.1157 72.0903 38.5273 72.5538 38.7179 73.0693ZM7.10419 72.2419C6.09488 72.9003 5.13755 73.2339 4.26252 73.2339C3.87698 73.2339 3.5261 73.1689 3.21854 73.0389C2.91965 72.935 2.76804 72.792 2.76804 72.6231C2.76804 72.2505 3.23587 71.7914 4.15422 71.2542C5.0639 70.7257 5.98226 70.3705 6.88328 70.2016L7.10419 72.2419Z" fill="#00B0EB"/>
<path id="Vector_7" d="M53.4764 61.8758C53.0519 61.6029 52.5667 61.4643 52.0339 61.4643C51.4967 61.4643 51.0765 61.6419 50.7863 61.9884C50.5177 62.3177 50.3835 62.7508 50.3835 63.275V77.6003H51.0765C52.5364 77.6003 53.2858 76.6127 53.3031 74.6677L53.511 61.9278V61.8931L53.4764 61.8758Z" fill="#00B0EB"/>
<path id="Vector_8" d="M15.9714 78.5923C14.9621 78.5923 14.1391 79.3807 14.1391 80.3511C14.1391 81.3214 14.9578 82.1098 15.9714 82.1098C16.9851 82.1098 17.8038 81.3214 17.8038 80.3511C17.8038 79.3764 16.9807 78.5923 15.9714 78.5923Z" fill="#00B0EB"/>
<path id="Vector_9" d="M22.7724 78.5923C21.8021 78.5923 21.0137 79.3807 21.0137 80.3511C21.0137 81.3214 21.8021 82.1098 22.7724 82.1098C23.7428 82.1098 24.5311 81.3214 24.5311 80.3511C24.5311 79.3764 23.7428 78.5923 22.7724 78.5923Z" fill="#00B0EB"/>
<path id="Vector_10" d="M12.1594 78.5923C11.1501 78.5923 10.3271 79.3807 10.3271 80.3511C10.3271 81.3214 11.1458 82.1098 12.1594 82.1098C13.1731 82.1098 13.9918 81.3214 13.9918 80.3511C13.9874 79.3764 13.1687 78.5923 12.1594 78.5923Z" fill="#00B0EB"/>
<path id="Vector_11" d="M5.73102 62.2787C4.7217 62.2787 3.89865 63.0671 3.89865 64.0374C3.89865 65.0077 4.71737 65.7961 5.73102 65.7961C6.74467 65.7961 7.56337 65.0077 7.56337 64.0374C7.56337 63.0671 6.74033 62.2787 5.73102 62.2787Z" fill="#00B0EB"/>
<path id="Vector_12" d="M1.91464 62.2787C0.905327 62.2787 0.0822754 63.0671 0.0822754 64.0374C0.0822754 65.0077 0.900995 65.7961 1.91464 65.7961C2.92396 65.7961 3.747 65.0077 3.747 64.0374C3.747 63.0671 2.92829 62.2787 1.91464 62.2787Z" fill="#00B0EB"/>
<path id="Vector_13" d="M139.849 68.5381C139.004 68.5381 138.242 68.8284 137.592 69.4045C136.946 69.972 136.236 70.938 135.474 72.2679C134.975 73.1039 134.555 73.6454 134.217 73.8706C133.923 74.0656 133.516 74.1782 133.009 74.1998C132.225 74.1825 131.584 74.1002 131.107 73.9703C131.467 73.5977 131.675 72.9739 131.722 72.1076L131.727 72.0426L131.662 72.0383C131.155 72.0036 130.57 71.8173 129.933 71.4838C129.288 71.1459 128.694 70.782 128.17 70.4052C127.642 70.0196 126.979 69.6644 126.208 69.3482C125.428 69.0276 124.657 68.8674 123.908 68.8674C122.651 68.8674 121.629 69.1099 120.867 69.5908C120.096 70.0759 119.706 70.6867 119.706 71.4058C119.706 71.7784 119.788 72.1422 119.948 72.4844L120.213 72.9956L120.273 72.9609C121.434 72.3372 122.569 72.0209 123.648 72.0209C124.388 72.0209 125.12 72.2462 125.818 72.688C123.812 73.4158 122.175 74.4251 120.949 75.6813C119.693 76.9852 119.056 78.3931 119.056 79.8702C119.056 81.7459 119.658 83.1841 120.849 84.1501C122.036 85.1117 123.643 85.6012 125.627 85.6012C127.057 85.6012 128.361 85.2633 129.513 84.5919C130.674 83.9161 131.263 83.1841 131.263 82.413V82.387C131.263 82.0924 131.172 81.8195 130.986 81.5726L130.557 81.0788L130.509 81.1091C129.175 81.9322 127.594 82.348 125.814 82.348C124.687 82.348 123.747 82.1314 123.028 81.7069C122.318 81.291 121.954 80.6673 121.954 79.8659C121.954 77.8169 123.934 75.9629 127.841 74.3558C129.036 76.2575 130.631 77.3404 132.584 77.5613C132.697 77.609 132.84 77.609 132.97 77.6003C132.996 77.6003 133.017 77.596 133.039 77.596C133.152 77.6003 133.269 77.6047 133.381 77.6047C133.507 77.6047 133.615 77.5787 133.715 77.5224C134.715 77.3404 135.547 76.8336 136.197 76.0149C137.54 77.2538 138.974 77.8819 140.455 77.8819C141.612 77.8819 142.591 77.505 143.362 76.7643C144.133 76.0235 144.527 75.0749 144.527 73.9486C144.527 72.5104 144.064 71.2369 143.145 70.1626C142.218 69.084 141.114 68.5381 139.849 68.5381ZM141.655 73.771C141.655 74.0006 141.521 74.1955 141.244 74.3645C140.962 74.5377 140.624 74.6287 140.239 74.6287C139.407 74.6287 138.605 74.3904 137.856 73.9226C138.592 72.5061 139.299 71.787 139.953 71.787C140.33 71.787 140.706 72.0036 141.083 72.4368C141.464 72.8743 141.655 73.3205 141.655 73.771Z" fill="#00B0EB"/>
<path id="Vector_14" d="M148.326 61.4643C147.785 61.4643 147.364 61.6419 147.079 61.9884C146.81 62.3177 146.676 62.7508 146.676 63.275V77.6003H147.369C148.829 77.6003 149.578 76.6127 149.595 74.6677L149.803 61.9278V61.8931L149.773 61.8715C149.344 61.6029 148.859 61.4643 148.326 61.4643Z" fill="#00B0EB"/>
<path id="Vector_15" d="M164.51 78.614C163.323 78.4321 162.314 79.4414 162.495 80.6283C162.608 81.369 163.215 81.9755 163.955 82.0881C165.142 82.2701 166.152 81.2607 165.97 80.0738C165.857 79.3287 165.251 78.7266 164.51 78.614Z" fill="#00B0EB"/>
<path id="Vector_16" d="M127.139 77.3188C125.952 77.1368 124.943 78.1462 125.125 79.3331C125.237 80.0738 125.844 80.6759 126.585 80.7929C127.772 80.9748 128.781 79.9655 128.599 78.7786C128.482 78.0379 127.88 77.4357 127.139 77.3188Z" fill="#00B0EB"/>
<path id="Vector_17" d="M173.442 61.8758C173.018 61.6029 172.532 61.4643 172 61.4643C170.852 61.4643 170.267 62.1054 170.267 63.3746L170.423 72.7184V72.7704C170.423 73.2165 170.236 73.5587 169.855 73.8143C169.47 74.0699 168.924 74.1999 168.231 74.1999C167.507 74.1999 166.927 74.0223 166.507 73.667C166.091 73.3162 165.879 72.8527 165.879 72.2939C165.879 71.7177 165.913 71.1979 165.983 70.7561L165.987 70.7214L165.961 70.6997C165.549 70.3402 165.099 70.1583 164.614 70.1583C163.639 70.1583 163.141 70.795 163.141 72.0469C163.141 72.74 162.916 73.2772 162.474 73.6454C162.028 74.0179 161.408 74.2042 160.633 74.2042C159.264 74.2042 158.237 73.4028 157.575 71.826C157.436 71.4491 157.323 71.0896 157.237 70.7561L157.228 70.7257L157.198 70.7127C156.842 70.5438 156.422 70.4572 155.946 70.4572C155.391 70.4572 154.949 70.6174 154.625 70.938C154.3 71.2586 154.139 71.6614 154.139 72.1466C154.139 72.6361 154.404 73.4505 154.928 74.5681C155.443 75.6684 155.703 76.4827 155.703 76.9896C155.703 77.8862 155.374 78.7136 154.733 79.4587C154.092 80.1994 153.355 80.572 152.55 80.572C151.766 80.572 150.934 80.39 150.081 80.0262L150.02 80.0002L149.834 80.3554C149.725 80.5633 149.669 80.7756 149.669 80.9835C149.669 81.616 149.998 82.2137 150.639 82.7682C151.28 83.3184 152.06 83.5956 152.961 83.5956C154.412 83.5956 155.643 83.0281 156.613 81.9105C157.579 80.7972 158.138 79.3461 158.281 77.596C158.298 77.4271 158.307 77.2668 158.307 77.1152C158.307 76.9982 158.302 76.8856 158.294 76.7686C158.982 77.3231 159.771 77.6047 160.633 77.6047C162.405 77.6047 163.652 76.9506 164.35 75.6597C164.67 76.2315 165.168 76.6993 165.827 77.0459C166.528 77.4141 167.334 77.6047 168.227 77.6047C171.584 77.6047 173.312 75.9109 173.364 72.5711L173.468 61.9278V61.8931L173.442 61.8758Z" fill="#00B0EB"/>
<path id="Vector_18" d="M69.6731 77.6047H69.7381H69.8074C69.8204 77.6047 69.829 77.6004 69.8334 77.6004C71.7437 77.5787 73.2252 77.1845 74.2345 76.4308C75.2785 75.6467 75.8069 74.5421 75.8069 73.1472C75.8069 71.8174 75.6597 70.3749 75.3651 68.8674L75.3608 68.8371L75.3348 68.8241C74.9276 68.6032 74.4771 68.4905 74.0006 68.4905C72.9913 68.4905 72.4758 68.9973 72.4758 70.0023C72.4758 70.4269 72.6144 70.9857 72.883 71.6744C73.1472 72.3458 73.2815 72.792 73.2815 72.9999C73.2815 73.3335 72.9133 73.6194 72.1855 73.849C71.4665 74.0786 70.6521 74.1955 69.777 74.2042C68.5685 74.1869 67.975 73.4765 67.9577 72.021L67.7757 66.1773V66.1427L67.7411 66.1253C67.3512 65.9217 66.8877 65.7961 66.3549 65.7441H66.173C65.7398 65.7441 65.3586 65.9088 65.0467 66.225C64.7434 66.5325 64.5832 66.9571 64.5745 67.4812C62.3956 67.9794 60.7409 68.7028 59.6536 69.6298C58.5533 70.5871 57.9945 71.6961 57.9945 72.922C57.9945 73.888 58.3887 74.7067 59.1597 75.3651C59.9308 76.0236 60.9011 76.3571 62.0404 76.3571C63.184 76.3571 64.3059 75.794 65.3802 74.685C65.6012 75.7463 66.043 76.5001 66.6971 76.9333C67.3426 77.3621 68.3389 77.5874 69.6601 77.6047H69.6731ZM65.0813 72.2419C64.0677 72.9003 63.1147 73.2339 62.2397 73.2339C61.8541 73.2339 61.5033 73.1689 61.1957 73.0389C60.8968 72.935 60.7452 72.792 60.7452 72.6231C60.7452 72.2505 61.213 71.7914 62.1314 71.2542C63.041 70.7257 63.9594 70.3705 64.8604 70.2016L65.0813 72.2419Z" fill="#00B0EB"/>
<path id="Vector_19" d="M92.961 72.2765L92.909 72.3242C91.6788 73.3898 90.3662 73.9313 89.0017 73.9313C88.4342 73.9313 87.8971 73.693 87.4119 73.2252C86.9224 72.7574 86.6798 72.3025 86.6798 71.8737C86.6798 71.5618 86.8401 71.3149 87.1693 71.1156C87.5029 70.9163 87.9534 70.8124 88.5122 70.8124C89.1923 70.8124 90.024 71.029 90.9814 71.4535L91.029 71.4751L91.4535 70.9597C91.7221 70.6174 91.8564 70.2406 91.8564 69.8464C91.8564 69.2096 91.5098 68.6681 90.8254 68.2306C90.1496 67.8018 89.3179 67.5808 88.3563 67.5808C87.0091 67.5808 85.8871 67.9577 85.0208 68.6984C84.1501 69.4392 83.7125 70.4225 83.7125 71.6181C83.7125 72.6577 84.0288 73.5154 84.6482 74.1609C84.332 74.1825 83.8165 74.1955 83.0714 74.1955C82.3524 74.1955 81.8369 74.0352 81.5423 73.719C81.2434 73.3985 81.0918 72.87 81.0918 72.1422L81.2477 61.9235V61.8888L81.2174 61.8715C80.7929 61.5986 80.3077 61.46 79.7749 61.46C79.2724 61.46 78.8609 61.6376 78.5533 61.9798C78.2501 62.322 78.0942 62.7725 78.0942 63.3226L78.3281 72.6447C78.3627 74.3818 78.7353 75.6554 79.437 76.4308C80.1041 77.1672 81.2564 77.5614 82.8549 77.596C82.8635 77.596 82.8765 77.6004 82.8938 77.6004H83.0844C83.3357 77.596 83.6346 77.5874 83.9898 77.5744C84.4186 77.557 84.9644 77.5397 85.6012 77.5224C86.2423 77.505 86.7795 77.4877 87.2127 77.4747C89.2053 77.4097 90.8254 77.0762 92.0253 76.4914C93.2426 75.8979 93.8577 75.1918 93.8577 74.3861C93.8577 73.7104 93.5718 73.0129 93.013 72.3242L92.961 72.2765Z" fill="#00B0EB"/>
<path id="Vector_20" d="M107.737 61.4643C106.589 61.4643 106.004 62.1054 106.004 63.3746L106.16 72.7184V72.7704C106.16 73.2165 105.974 73.5587 105.593 73.8143C105.207 74.0699 104.661 74.1999 103.968 74.1999C102.599 74.1999 101.573 73.3985 100.91 71.8217C100.771 71.4405 100.659 71.081 100.572 70.7517L100.563 70.7214L100.533 70.7084C100.178 70.5395 99.7576 70.4528 99.2811 70.4528C98.7266 70.4528 98.2848 70.6131 97.9599 70.9337C97.635 71.2542 97.4704 71.6571 97.4704 72.1422C97.4704 72.6317 97.7347 73.4461 98.2588 74.5637C98.7743 75.664 99.0342 76.4784 99.0342 76.9852C99.0342 77.8819 98.7093 78.7093 98.0639 79.4544C97.4228 80.1951 96.6864 80.5676 95.8806 80.5676C95.0966 80.5676 94.2649 80.3857 93.4115 80.0218L93.3508 79.9958L93.1646 80.351C93.0563 80.559 93 80.7712 93 80.9792C93 81.6116 93.3292 82.2094 93.9703 82.7639C94.6114 83.314 95.3911 83.5913 96.2878 83.5913C97.739 83.5913 98.9692 83.0238 99.9396 81.9062C100.906 80.7929 101.469 79.3417 101.607 77.5917C101.625 77.4227 101.633 77.2625 101.633 77.1109C101.633 76.9939 101.629 76.8813 101.62 76.7643C102.309 77.3188 103.097 77.6003 103.959 77.6003C107.317 77.6003 109.045 75.9066 109.097 72.5668L109.201 61.9235V61.8888L109.171 61.8715C108.755 61.6029 108.27 61.4643 107.737 61.4643Z" fill="#00B0EB"/>
<path id="Vector_21" d="M115.006 61.8758C114.581 61.6029 114.096 61.4643 113.563 61.4643C113.022 61.4643 112.606 61.6419 112.316 61.9884C112.047 62.3177 111.913 62.7508 111.913 63.275V77.6003H112.606C114.066 77.6003 114.815 76.6127 114.832 74.6677L115.04 61.9278V61.8931L115.006 61.8758Z" fill="#00B0EB"/>
<path id="Vector_22" d="M73.1906 78.5923C72.1812 78.5923 71.3582 79.3807 71.3582 80.3511C71.3582 81.3214 72.1769 82.1098 73.1906 82.1098C74.1999 82.1098 75.0229 81.3214 75.0229 80.3511C75.0229 79.3764 74.1999 78.5923 73.1906 78.5923Z" fill="#00B0EB"/>
<path id="Vector_23" d="M69.3742 78.5923C68.3649 78.5923 67.5418 79.3807 67.5418 80.3511C67.5418 81.3214 68.3606 82.1098 69.3742 82.1098C70.3879 82.1098 71.2066 81.3214 71.2066 80.3511C71.2066 79.3764 70.3879 78.5923 69.3742 78.5923Z" fill="#00B0EB"/>
<path id="Vector_24" d="M63.7082 62.2787C62.6989 62.2787 61.8758 63.0671 61.8758 64.0374C61.8758 65.0077 62.6945 65.7961 63.7082 65.7961C64.7218 65.7961 65.5405 65.0077 65.5405 64.0374C65.5405 63.0671 64.7175 62.2787 63.7082 62.2787Z" fill="#00B0EB"/>
<path id="Vector_25" d="M59.8918 62.2787C58.8825 62.2787 58.0595 63.0671 58.0595 64.0374C58.0595 65.0077 58.8782 65.7961 59.8918 65.7961C60.9055 65.7961 61.7242 65.0077 61.7242 64.0374C61.7242 63.0671 60.9055 62.2787 59.8918 62.2787Z" fill="#00B0EB"/>
</g>
</g>
</g>
</svg>
