<svg width="24" height="24" viewBox="0 0 24 24" fill="none" xmlns="http://www.w3.org/2000/svg">
<g id="ph:hand-waving-thin">
<path id="Vector" d="M17.6381 2.90628C17.6509 2.85869 17.6729 2.81407 17.7028 2.77498C17.7328 2.73588 17.7702 2.70308 17.8129 2.67844C17.8555 2.6538 17.9026 2.63781 17.9515 2.63138C18.0003 2.62495 18.0499 2.62821 18.0975 2.64097C19.4916 3.01597 20.6381 3.87565 21.3244 5.06534C21.3515 5.10802 21.3697 5.15575 21.378 5.20566C21.3862 5.25556 21.3842 5.30661 21.3722 5.35574C21.3601 5.40486 21.3383 5.45104 21.3079 5.4915C21.2776 5.53197 21.2394 5.56587 21.1956 5.59118C21.1518 5.61649 21.1033 5.63268 21.0531 5.63878C21.0029 5.64488 20.952 5.64076 20.9034 5.62667C20.8549 5.61258 20.8096 5.58881 20.7705 5.55679C20.7314 5.52476 20.6991 5.48515 20.6756 5.44034C20.0888 4.42128 19.1035 3.6844 17.9063 3.3619C17.8105 3.33676 17.7285 3.27474 17.6783 3.18937C17.628 3.10401 17.6136 3.00224 17.6381 2.90628ZM7.22814 21.4557C6.31033 20.7319 5.54627 19.8122 4.82439 18.5625C4.77251 18.4809 4.69109 18.4225 4.59714 18.3995C4.5032 18.3765 4.404 18.3906 4.32026 18.439C4.23652 18.4874 4.17472 18.5663 4.14777 18.6592C4.12083 18.7521 4.13081 18.8518 4.17564 18.9375C4.94627 20.2725 5.76939 21.2597 6.76408 22.0444C6.83005 22.0965 6.9116 22.1249 6.99564 22.125C7.07358 22.1251 7.14959 22.1008 7.21311 22.0557C7.27663 22.0105 7.3245 21.9467 7.35007 21.8731C7.37564 21.7994 7.37764 21.7197 7.35579 21.6449C7.33394 21.5701 7.28932 21.5039 7.22814 21.4557ZM21.1031 15.5372C20.6543 17.2094 19.6675 18.6873 18.295 19.7428C16.9225 20.7982 15.2408 21.3725 13.5094 21.3769C12.817 21.3764 12.1277 21.285 11.4591 21.105C10.4591 20.8402 9.52159 20.3796 8.70087 19.7499C7.88015 19.1202 7.19253 18.3339 6.67783 17.4366L3.11533 11.266C2.89818 10.8898 2.79455 10.4588 2.81696 10.025C2.83937 9.59126 2.98685 9.17324 3.2416 8.82144C3.49636 8.46964 3.84749 8.1991 4.25262 8.04247C4.65775 7.88585 5.09956 7.84983 5.52471 7.93878L4.86377 6.79315C4.58662 6.28979 4.51257 5.69946 4.65679 5.14323C4.80101 4.587 5.15258 4.10703 5.6394 3.80175C6.12622 3.49647 6.71139 3.38902 7.27491 3.50142C7.83843 3.61383 8.33759 3.93758 8.67002 4.40628C8.80382 3.99226 9.05478 3.62592 9.39252 3.35163C9.73026 3.07733 10.1403 2.90684 10.5729 2.8608C11.0056 2.81477 11.4423 2.89517 11.8302 3.09226C12.2181 3.28935 12.5405 3.59469 12.7585 3.97128L14.5472 7.06503C14.6828 6.65284 14.9347 6.28865 15.2725 6.01633C15.6103 5.74402 16.0197 5.5752 16.4513 5.53022C16.8829 5.48524 17.3183 5.56601 17.705 5.76281C18.0917 5.95961 18.4133 6.26403 18.631 6.6394L20.3185 9.56253C20.8381 10.4569 21.1752 11.4455 21.3102 12.4711C21.4453 13.4966 21.3755 14.5388 21.105 15.5372H21.1031ZM19.6688 9.93753L17.9813 7.0144C17.8841 6.84125 17.7536 6.68911 17.5972 6.56681C17.4408 6.4445 17.2617 6.35445 17.0702 6.30189C16.8787 6.24933 16.6788 6.2353 16.4818 6.26062C16.2849 6.28594 16.095 6.35009 15.923 6.44937C15.7511 6.54865 15.6006 6.68107 15.4802 6.83896C15.3599 6.99685 15.272 7.17707 15.2218 7.36916C15.1716 7.56125 15.1601 7.76139 15.1878 7.95798C15.2156 8.15458 15.2821 8.3437 15.3835 8.5144L16.321 10.1382C16.3457 10.1808 16.3618 10.2279 16.3683 10.2768C16.3748 10.3256 16.3716 10.3753 16.3588 10.4229C16.3461 10.4706 16.3242 10.5152 16.2942 10.5544C16.2642 10.5935 16.2268 10.6263 16.1841 10.651C15.409 11.0985 14.8434 11.8355 14.6117 12.6999C14.38 13.5644 14.5011 14.4855 14.9485 15.2607C14.9731 15.3033 14.9891 15.3504 14.9955 15.3992C15.0019 15.4481 14.9986 15.4977 14.9859 15.5453C14.9731 15.5928 14.9511 15.6374 14.9212 15.6765C14.8912 15.7156 14.8538 15.7484 14.8111 15.773C14.7685 15.7976 14.7214 15.8136 14.6725 15.82C14.6237 15.8264 14.5741 15.8232 14.5265 15.8104C14.4789 15.7977 14.4343 15.7757 14.3952 15.7457C14.3562 15.7157 14.3234 15.6783 14.2988 15.6357C13.7843 14.7436 13.6214 13.6916 13.8422 12.6857C14.063 11.6799 14.6514 10.7927 15.4922 10.1982L12.1088 4.34159C11.9072 4.00231 11.5801 3.75611 11.1983 3.65635C10.8165 3.55658 10.4108 3.61129 10.0691 3.80861C9.72732 4.00594 9.4771 4.32998 9.37263 4.71052C9.26817 5.09106 9.31786 5.49744 9.51096 5.84159L11.9485 10.0603C11.9982 10.1465 12.0117 10.2489 11.9859 10.345C11.9601 10.441 11.8973 10.523 11.8111 10.5727C11.725 10.6224 11.6226 10.6359 11.5265 10.6101C11.4304 10.5844 11.3485 10.5215 11.2988 10.4353L8.11127 4.9144C8.01412 4.74125 7.88356 4.58911 7.72717 4.46681C7.57078 4.3445 7.39166 4.25445 7.2002 4.20189C7.00875 4.14933 6.80876 4.1353 6.61184 4.16062C6.41492 4.18594 6.22499 4.25009 6.05305 4.34937C5.88111 4.44865 5.7306 4.58107 5.61023 4.73896C5.48986 4.89685 5.40203 5.07707 5.35183 5.26916C5.30164 5.46125 5.29008 5.66139 5.31783 5.85798C5.34557 6.05458 5.41206 6.2437 5.51346 6.4144L9.07596 12.5841C9.10058 12.6267 9.11656 12.6738 9.12298 12.7227C9.12941 12.7715 9.12615 12.8211 9.11339 12.8687C9.10064 12.9163 9.07864 12.9609 9.04865 13C9.01866 13.039 8.98127 13.0718 8.93861 13.0964C8.89595 13.1211 8.84886 13.137 8.80003 13.1435C8.75119 13.1499 8.70157 13.1466 8.654 13.1339C8.60642 13.1211 8.56182 13.0991 8.52275 13.0691C8.48368 13.0391 8.45089 13.0017 8.42627 12.9591L6.36377 9.38722C6.26662 9.21407 6.13606 9.06193 5.97967 8.93962C5.82328 8.81731 5.64416 8.72726 5.4527 8.6747C5.26125 8.62214 5.06126 8.60812 4.86434 8.63343C4.66742 8.65875 4.47749 8.72291 4.30555 8.82218C4.13361 8.92146 3.9831 9.05388 3.86273 9.21177C3.74236 9.36966 3.65453 9.54988 3.60433 9.74197C3.55414 9.93406 3.54258 10.1342 3.57033 10.3308C3.59807 10.5274 3.66456 10.7165 3.76596 10.8872L7.32846 17.0578C7.78562 17.8879 8.40375 18.6184 9.14669 19.2066C9.88962 19.7948 10.7424 20.2289 11.6552 20.4835C12.5679 20.7381 13.5223 20.808 14.4624 20.6893C15.4025 20.5705 16.3095 20.2654 17.1303 19.7918C17.9511 19.3182 18.6691 18.6857 19.2424 17.9312C19.8158 17.1767 20.2328 16.3155 20.4692 15.3978C20.7056 14.4802 20.7565 13.5246 20.6191 12.587C20.4817 11.6495 20.1586 10.7487 19.6688 9.93753Z" fill="#8C8B8B"/>
</g>
</svg>
