<svg width="24" height="15" viewBox="0 0 24 15" fill="none" xmlns="http://www.w3.org/2000/svg">
<g id="Group">
<path id="Vector" d="M18.95 10.2847C18.479 9.30276 16.794 7.93973 15.166 6.62273C14.258 5.88871 13.4 5.19473 12.853 4.64774C12.716 4.50974 12.511 4.46573 12.3301 4.53074C11.9931 4.65276 11.785 4.74674 11.6211 4.81973C11.3711 4.93171 11.2871 4.96973 10.9501 5.00371C10.8767 5.01096 10.8058 5.03435 10.7425 5.07221C10.6792 5.11008 10.6251 5.16147 10.5841 5.22271C9.87704 6.2797 9.14504 6.1897 8.65604 6.02573C8.50004 5.97374 8.47206 5.90671 8.45706 5.84273C8.35206 5.40374 8.87908 4.38173 9.56204 3.69871C11.1871 2.07271 12.025 1.6657 13.795 2.45671C15.803 3.3547 17.815 4.05773 17.8351 4.06471C17.8971 4.08644 17.9628 4.0957 18.0285 4.09197C18.0941 4.08823 18.1583 4.07158 18.2175 4.04297C18.2767 4.01435 18.3296 3.97433 18.3733 3.92521C18.417 3.87608 18.4505 3.81882 18.472 3.7567C18.562 3.4957 18.425 3.2107 18.164 3.11971C18.144 3.11273 16.172 2.42371 14.204 1.5427C11.911 0.51768 10.653 1.19268 8.85601 2.99071C8.17201 3.67471 7.243 5.0587 7.483 6.07373C7.58598 6.50573 7.89001 6.82574 8.34198 6.97471C9.475 7.34873 10.509 6.9907 11.279 5.96873C11.597 5.91974 11.77 5.84774 12.03 5.73074C12.1457 5.67849 12.2624 5.62848 12.38 5.58074C12.952 6.11774 13.724 6.74273 14.537 7.39973C16.007 8.58871 17.674 9.93674 18.049 10.7167C18.234 11.1017 18.035 11.3527 17.9 11.4677C17.702 11.6377 17.431 11.6917 17.284 11.5887C17.122 11.4777 16.911 11.4707 16.744 11.5707C16.6618 11.6197 16.5954 11.6913 16.5527 11.7769C16.51 11.8625 16.4927 11.9586 16.503 12.0537C16.537 12.3717 16.246 12.5537 16.12 12.6167C15.8 12.7787 15.466 12.7507 15.341 12.6347C15.201 12.5047 15 12.4667 14.822 12.5327C14.644 12.5997 14.52 12.7637 14.502 12.9537C14.472 13.2817 14.229 13.5967 13.912 13.7197C13.759 13.7777 13.537 13.8127 13.338 13.6307C13.2769 13.5757 13.2034 13.5364 13.1238 13.5162C13.0442 13.496 12.9608 13.4954 12.881 13.5147C12.801 13.5342 12.7272 13.5731 12.6659 13.6281C12.6047 13.6831 12.558 13.7523 12.53 13.8297C12.511 13.8797 12.468 13.9997 12 13.9997C11.667 13.9997 11.068 13.7747 10.775 13.5807C10.424 13.3497 8.22297 11.7077 6.322 10.1157C6.055 9.89067 5.593 9.40865 5.185 8.98265C4.82298 8.60465 4.492 8.26166 4.32198 8.11766C4.10898 7.93766 3.79398 7.96466 3.61698 8.17668C3.439 8.38766 3.46497 8.7037 3.676 8.88168C3.83101 9.0127 4.13101 9.32966 4.462 9.67466C4.90801 10.1406 5.36898 10.6227 5.67901 10.8827C7.54103 12.4417 9.77903 14.1247 10.225 14.4177C10.593 14.6597 11.386 14.9997 12 14.9997C12.493 14.9997 12.872 14.8867 13.135 14.6657C13.487 14.8027 13.887 14.8037 14.272 14.6537C14.727 14.4777 15.101 14.1227 15.313 13.6927C15.707 13.7767 16.158 13.7177 16.568 13.5117C16.969 13.3097 17.259 13.0007 17.403 12.6397C17.801 12.6607 18.2109 12.5197 18.5499 12.2287C19.124 11.7377 19.282 10.9738 18.95 10.2847Z" fill="#8C8B8B"/>
<path id="Vector_2" d="M9.99998 1.99951H5.49999C5.22399 1.99951 4.99997 2.22353 4.99997 2.49953C4.99997 2.77553 5.22399 2.99954 5.49999 2.99954H9.99998C10.276 2.99954 10.5 2.77553 10.5 2.49953C10.5 2.22353 10.276 1.99951 9.99998 1.99951ZM20.415 9.22051C20.26 8.99153 19.95 8.92853 19.721 9.08453L18.259 10.0665C18.03 10.2205 17.969 10.5315 18.123 10.7605C18.169 10.8285 18.231 10.8843 18.3035 10.9228C18.3761 10.9613 18.4569 10.9815 18.5391 10.9815C18.6341 10.9815 18.7311 10.9545 18.8171 10.8965L20.2791 9.91454C20.508 9.76051 20.569 9.44954 20.415 9.22051ZM17.311 11.6065C16.953 11.3245 15.352 9.68556 14.362 8.65356C14.171 8.45354 13.854 8.44656 13.655 8.63856C13.455 8.82957 13.449 9.14654 13.64 9.34557C13.897 9.61356 16.164 11.9766 16.691 12.3926C16.779 12.462 16.8879 12.4997 17 12.4996C17.147 12.4996 17.294 12.4336 17.394 12.3086C17.565 12.0925 17.528 11.7775 17.311 11.6065ZM15.313 12.6095C14.714 12.1305 13.209 10.5315 12.869 10.1615C12.681 9.95753 12.366 9.94553 12.162 10.1315C11.9589 10.3185 11.945 10.6355 12.132 10.8385C12.15 10.8575 13.946 12.7966 14.688 13.3906C14.7767 13.461 14.8866 13.4994 15 13.4995C15.146 13.4995 15.2919 13.4345 15.3909 13.3126C15.563 13.0965 15.528 12.7815 15.313 12.6095ZM13.323 13.6165C12.61 13.0156 11.151 11.4625 10.866 11.1575C10.677 10.9555 10.36 10.9445 10.159 11.1335C9.957 11.3225 9.94697 11.6385 10.135 11.8405C10.545 12.2795 11.941 13.7596 12.678 14.3815C12.768 14.4577 12.8821 14.4995 13 14.4995C13.142 14.4995 13.284 14.4385 13.383 14.3215C13.561 14.1095 13.534 13.7945 13.323 13.6165Z" fill="#8C8B8B"/>
<path id="Vector_3" d="M5.844 1.1367C4.98698 0.32468 1.56 0.0616641 0.530016 0.000679717C0.388031 -0.00630466 0.257016 0.0406643 0.157031 0.13568C0.107416 0.182433 0.0678901 0.238842 0.0408849 0.301437C0.0138797 0.364033 -3.38365e-05 0.431492 6.17921e-08 0.499664V9.49966C6.17921e-08 9.77566 0.224016 9.99968 0.500016 9.99968H3.50002C3.71602 9.99968 3.90802 9.8607 3.975 9.65468C4.04798 9.43066 5.77102 4.1427 5.99798 1.54268C6.01102 1.39066 5.955 1.24066 5.844 1.1367ZM3.135 8.9997H0.999985V1.03568C2.607 1.16266 4.341 1.43866 4.971 1.74466C4.70602 3.93466 3.507 7.82566 3.135 8.9997ZM23.5 0.99968C19.574 0.99968 17.396 2.00468 17.305 2.04668C17.175 2.10766 17.078 2.22068 17.038 2.3577C16.998 2.49471 17.018 2.64171 17.093 2.76368C17.711 3.7587 19.646 9.2847 20.018 10.6327C20.0471 10.7382 20.11 10.8312 20.1971 10.8975C20.2841 10.9638 20.3905 10.9997 20.5 10.9997H23.5C23.776 10.9997 24 10.7756 24 10.4996V1.49965C24.0001 1.43397 23.9872 1.36893 23.9621 1.30824C23.9369 1.24756 23.9001 1.19241 23.8537 1.14598C23.8072 1.09954 23.7521 1.06271 23.6914 1.03761C23.6307 1.01251 23.5657 0.999618 23.5 0.99968ZM23 9.99968H20.874C20.4 8.45566 19 4.42966 18.219 2.7657C18.982 2.50671 20.621 2.06168 23 2.00571V9.99968Z" fill="#8C8B8B"/>
</g>
</svg>
