<svg width="103" height="75" viewBox="0 0 103 75" fill="none" xmlns="http://www.w3.org/2000/svg">
<g id="Group 15">
<g id="Group">
<g id="Clip path group">
<mask id="mask0_318_1081" style="mask-type:luminance" maskUnits="userSpaceOnUse" x="0" y="0" width="103" height="75">
<g id="SVGID_4_">
<path id="Vector" d="M8.71186 51.9397C8.57461 43.7367 15.2081 37.0445 23.4124 37.0445H28.0863H32.5811H34.087C35.5776 37.0445 36.79 35.8412 36.79 34.3532V32.5577V28.3784V23.5538C36.79 15.5254 43.1833 8.80656 51.2465 8.6699C59.485 8.53325 66.2062 15.142 66.2062 23.3108V28.3784V32.5577V34.3532C66.2062 35.8374 67.4147 37.0445 68.9092 37.0445H70.4189H74.9137H79.5914C87.7957 37.0445 94.433 43.7367 94.2958 51.9397C94.1623 59.9681 87.4144 66.3339 79.3475 66.3339H74.9137H66.21H61.8144H61.3759H54.0257H48.9781H41.6279H41.1894H36.7938H28.0901H23.6602C15.5932 66.3301 8.84529 59.9681 8.71186 51.9397ZM28.0901 23.3108V27.1219C28.0901 27.8166 27.5259 28.3784 26.8282 28.3784H23.7059C10.7934 28.3784 0.0959019 38.6615 0.000592654 51.5184C-0.0909042 64.4739 10.4236 75 23.4124 75H79.5876C92.5726 75 103.091 64.4739 102.999 51.5184C102.908 38.6615 92.2066 28.3784 79.2941 28.3784H76.1717C75.4741 28.3784 74.9099 27.8166 74.9099 27.1219V23.6031C74.9099 10.7501 64.586 0.0986942 51.6773 0C51.6163 0 51.5553 0 51.4981 0C38.5703 0 28.0901 10.435 28.0901 23.3108Z" fill="white"/>
</g>
</mask>
<g mask="url(#mask0_318_1081)">
<path id="Vector_2" d="M-37.753 37.4962L51.4984 -51.3704L140.754 37.4962L51.4984 126.367L-37.753 37.4962Z" fill="url(#paint0_linear_318_1081)"/>
</g>
</g>
</g>
<g id="Group_2">
<g id="Clip path group_2">
<mask id="mask1_318_1081" style="mask-type:luminance" maskUnits="userSpaceOnUse" x="13" y="13" width="77" height="49">
<g id="SVGID_7_">
<path id="Vector_3" d="M20.9003 51.8564C20.805 50.3949 21.9678 49.1802 23.4126 49.1802H28.0866H33.4163H36.7903H37.9035H41.1897H46.6872H48.9784H54.0222H56.3134H61.8108H65.0933H66.2065H69.5805H74.9101H79.5879C81.0366 49.1802 82.1956 50.3949 82.1003 51.8564C82.0126 53.1887 80.8384 54.1984 79.4964 54.1984H74.9101H69.5843H66.2065H65.0933H64.1135C63.5683 54.1984 63.0994 53.8454 62.9164 53.333C62.6762 52.6573 62.295 52.0499 61.807 51.5451C60.8882 50.5885 59.5959 49.9964 58.1662 49.9964C57.4724 49.9964 56.8128 50.1368 56.2105 50.3873C55.3222 50.7593 54.5597 51.3819 54.0184 52.1676C53.7705 52.5282 53.5647 52.9192 53.416 53.3406C53.2368 53.8492 52.7641 54.1984 52.2227 54.1984H50.7702C50.2289 54.1984 49.7561 53.8492 49.5769 53.3406C49.4283 52.9192 49.2262 52.5282 48.9746 52.1676C48.4332 51.3819 47.6708 50.7593 46.7825 50.3873C46.1801 50.133 45.5168 49.9964 44.8267 49.9964C43.3971 49.9964 42.1047 50.5923 41.1859 51.5451C40.7017 52.0499 40.3205 52.6573 40.0803 53.333C39.8973 53.8454 39.4284 54.1984 38.8832 54.1984H37.9035H36.7903H33.4125H28.0866H23.5003C22.1584 54.1984 20.988 53.1887 20.9003 51.8564ZM48.9784 40.1649V37.7393V37.0446V33.2677V28.3785V23.3983C48.9784 22.0621 49.9887 20.893 51.3306 20.8056C52.7984 20.707 54.026 21.8685 54.026 23.311V28.3785V33.2677V37.0446V37.7393V40.1649C54.026 40.8595 53.4617 41.4213 52.7641 41.4213H50.2403C49.5426 41.4213 48.9784 40.8595 48.9784 40.1649ZM41.1897 23.311V28.3785V33.7574V36.5208V37.0446V41.4213H36.7941H36.7636H33.9043H28.0904H23.4165C17.7246 41.4213 13.104 46.0182 13.104 51.6893C13.104 57.3605 17.7246 61.9573 23.4165 61.9573H28.0904H33.9005H36.7941H41.1897H44.4341H48.9784H54.0222H58.5665H61.8108H66.2065H69.1001H74.9101H79.5879C85.2836 61.9573 89.9004 57.3605 89.9004 51.6893C89.9004 46.0182 85.2836 41.4213 79.5879 41.4213H74.9101H69.0963H66.237H66.2065H61.8108V37.0446V36.5208V33.7574V28.3785V23.311C61.8108 17.6398 57.1941 13.043 51.4984 13.043C45.8027 13.043 41.1897 17.6398 41.1897 23.311Z" fill="white"/>
</g>
</mask>
<g mask="url(#mask1_318_1081)">
<path id="Vector_4" d="M-11.4591 37.5001L51.4984 -25.1897L114.46 37.5001L51.4984 100.19L-11.4591 37.5001Z" fill="url(#paint1_linear_318_1081)"/>
</g>
</g>
</g>
</g>
<defs>
<linearGradient id="paint0_linear_318_1081" x1="13.7713" y1="75.0542" x2="74.8549" y2="13.7061" gradientUnits="userSpaceOnUse">
<stop stop-color="#9185BE"/>
<stop offset="0.1" stop-color="#9185BE"/>
<stop offset="0.9" stop-color="#00B0EB"/>
<stop offset="1" stop-color="#00B0EB"/>
</linearGradient>
<linearGradient id="paint1_linear_318_1081" x1="23.0389" y1="65.8398" x2="65.7303" y2="22.9635" gradientUnits="userSpaceOnUse">
<stop stop-color="#9185BE"/>
<stop offset="0.1" stop-color="#9185BE"/>
<stop offset="0.9" stop-color="#00B0EB"/>
<stop offset="1" stop-color="#00B0EB"/>
</linearGradient>
</defs>
</svg>
