<svg width="24" height="24" viewBox="0 0 24 24" fill="none" xmlns="http://www.w3.org/2000/svg">
<g id="mdi:seal-outline">
<path id="Vector" d="M13 21L15 20L17 21V14H13M17 9V7L15 8L13 7V9L11 10L13 11V13L15 12L17 13V11L19 10M20 3H4C3.46957 3 2.96086 3.21071 2.58579 3.58579C2.21071 3.96086 2 4.46957 2 5V15C2 15.5304 2.21071 16.0391 2.58579 16.4142C2.96086 16.7893 3.46957 17 4 17H11V15H4V5H20V15H19V17H20C20.5304 17 21.0391 16.7893 21.4142 16.4142C21.7893 16.0391 22 15.5304 22 15V5C22 4.46957 21.7893 3.96086 21.4142 3.58579C21.0391 3.21071 20.5304 3 20 3ZM11 8H5V6H11M9 11H5V9H9M11 14H5V12H11V14Z" fill="#8C8B8B"/>
</g>
</svg>
